<?xml version="1.0" encoding="UTF-8" standalone="no"?>
<!-- Created with Inkscape (http://www.inkscape.org/) -->
<svg
   xmlns:dc="http://purl.org/dc/elements/1.1/"
   xmlns:cc="http://web.resource.org/cc/"
   xmlns:rdf="http://www.w3.org/1999/02/22-rdf-syntax-ns#"
   xmlns:svg="http://www.w3.org/2000/svg"
   xmlns="http://www.w3.org/2000/svg"
   xmlns:sodipodi="http://inkscape.sourceforge.net/DTD/sodipodi-0.dtd"
   xmlns:inkscape="http://www.inkscape.org/namespaces/inkscape"
   width="510.00000pt"
   height="230.00000pt"
   id="svg2"
   sodipodi:version="0.32"
   inkscape:version="0.42"
   sodipodi:docbase="/home/usuario/Desktop"
   sodipodi:docname="Ac lacustris.svg">
  <defs
     id="defs4">
    <linearGradient
       id="linearGradient2120">
      <stop
         style="stop-color:#507864;stop-opacity:1;"
         offset="0"
         id="stop2122" />
      <stop
         style="stop-color:#507864;stop-opacity:0;"
         offset="1"
         id="stop2124" />
    </linearGradient>
  </defs>
  <sodipodi:namedview
     id="base"
     pagecolor="#ffffff"
     bordercolor="#666666"
     borderopacity="1.0"
     inkscape:pageopacity="0.0"
     inkscape:pageshadow="2"
     inkscape:zoom="0.86180109"
     inkscape:cx="354.11520"
     inkscape:cy="43.197267"
     inkscape:document-units="px"
     inkscape:current-layer="layer1"
     inkscape:window-width="1024"
     inkscape:window-height="691"
     inkscape:window-x="0"
     inkscape:window-y="29" />
  <metadata
     id="metadata7">
    <rdf:RDF>
      <cc:Work
         rdf:about="">
        <dc:format>image/svg+xml</dc:format>
        <dc:type
           rdf:resource="http://purl.org/dc/dcmitype/StillImage" />
      </cc:Work>
    </rdf:RDF>
  </metadata>
  <g
     inkscape:label="Layer 1"
     inkscape:groupmode="layer"
     id="layer1">
    <g
       id="g5096"
       transform="translate(-36.00000,-56.00000)">
      <g
         style="fill:#d2a000;fill-opacity:1.0000000"
         id="g1367">
        <path
           style="fill:#d2a000;fill-opacity:1.0000000;fill-rule:evenodd;stroke:#000000;stroke-width:1.0000000px;stroke-linecap:butt;stroke-linejoin:miter;stroke-opacity:1.0000000"
           d="M 382.53416,143.07409 C 400.36480,125.53820 423.20589,87.795097 439.69443,79.758096 C 437.77784,93.374189 451.95184,142.73389 448.48832,165.05882 C 434.19825,180.88782 384.73263,164.39927 382.53416,143.07409 z "
           id="path1354"
           sodipodi:nodetypes="cccc" />
        <path
           style="fill:#d2a000;fill-opacity:1.0000000;fill-rule:evenodd;stroke:#000000;stroke-width:1.0000000px;stroke-linecap:butt;stroke-linejoin:miter;stroke-opacity:1.0000000"
           d="M 426.50360,245.96259 C 427.22146,257.00470 427.67131,268.11741 432.65932,282.89692 C 440.35397,300.92439 450.12888,318.57850 457.28221,318.07248 C 454.69164,299.70266 447.11949,282.82846 463.43793,263.55037 C 485.16964,246.43759 511.48070,242.83498 527.96924,233.38155 C 544.45778,223.92812 542.03731,217.99011 514.77626,221.94736 C 487.51521,225.90461 450.68680,231.67252 426.50360,245.96259 z "
           id="path1357"
           sodipodi:nodetypes="ccccccc" />
        <path
           style="fill:#d2a000;fill-opacity:1.0000000;fill-rule:evenodd;stroke:#000000;stroke-width:1.0000000px;stroke-linecap:butt;stroke-linejoin:miter;stroke-opacity:1.0000000"
           d="M 521.00474,185.55649 C 521.00474,180.50000 537.30660,171.43438 543.46232,174.73209 C 549.61804,178.02980 544.20477,192.65794 538.04905,194.41671 C 531.89332,196.17549 521.00474,190.61298 521.00474,185.55649 z "
           id="path1359"
           sodipodi:nodetypes="cccc" />
        <path
           style="fill:#d2a000;fill-opacity:1.0000000;fill-rule:evenodd;stroke:#000000;stroke-width:1.0000000px;stroke-linecap:butt;stroke-linejoin:miter;stroke-opacity:1.0000000"
           d="M 323.81836,243.12116 C 315.68402,253.67382 329.24822,275.04661 336.12981,285.33183 C 344.53007,249.72040 365.24914,255.29780 368.66720,243.12116 C 365.58934,232.56849 331.95271,232.56849 323.81836,243.12116 z "
           id="path1361"
           sodipodi:nodetypes="cccc" />
      </g>
      <g
         transform="matrix(1.176568,0.000000,0.000000,1.130354,-21.85498,-25.19263)"
         style="fill:#c8c8c8;fill-opacity:1.0000000;stroke:#000000;stroke-opacity:1.0000000"
         id="g2158">
        <path
           style="fill:#c8c8c8;fill-opacity:1.0000000;fill-rule:evenodd;stroke:#000000;stroke-width:1.0000000px;stroke-linecap:butt;stroke-linejoin:miter;stroke-opacity:1.0000000"
           d="M 93.636762,183.78516 C 93.636762,186.84737 94.402315,189.90958 94.402315,189.90958 L 95.933420,182.63683 L 93.636762,183.78516 z "
           id="path2146" />
        <path
           style="fill:#c8c8c8;fill-opacity:1.0000000;fill-rule:evenodd;stroke:#000000;stroke-width:1.0000000px;stroke-linecap:butt;stroke-linejoin:miter;stroke-opacity:1.0000000"
           d="M 104.70306,184.62051 C 104.70306,187.68272 105.46862,190.74493 105.46862,190.74493 L 106.99972,183.47218 L 104.70306,184.62051 z "
           id="path2148" />
        <path
           style="fill:#c8c8c8;fill-opacity:1.0000000;fill-rule:evenodd;stroke:#000000;stroke-width:1.0000000px;stroke-linecap:butt;stroke-linejoin:miter;stroke-opacity:1.0000000"
           d="M 116.48438,188.15490 C 116.48438,191.21711 117.24994,194.27932 117.24994,194.27932 L 118.78104,187.00657 L 116.48438,188.15490 z "
           id="path2150" />
        <path
           style="fill:#c8c8c8;fill-opacity:1.0000000;fill-rule:evenodd;stroke:#000000;stroke-width:1.0000000px;stroke-linecap:butt;stroke-linejoin:miter;stroke-opacity:1.0000000"
           d="M 95.278000,199.02165 C 95.278000,195.95944 96.043560,192.89723 96.043560,192.89723 L 97.574660,200.16998 L 95.278000,199.02165 z "
           id="path2152" />
        <path
           style="fill:#c8c8c8;fill-opacity:1.0000000;fill-rule:evenodd;stroke:#000000;stroke-width:1.0000000px;stroke-linecap:butt;stroke-linejoin:miter;stroke-opacity:1.0000000"
           d="M 107.53057,199.25728 C 107.53057,196.19507 108.29613,193.13286 108.29613,193.13286 L 109.82723,200.40561 L 107.53057,199.25728 z "
           id="path2154" />
        <path
           style="fill:#c8c8c8;fill-opacity:1.0000000;fill-rule:evenodd;stroke:#000000;stroke-width:1.0000000px;stroke-linecap:butt;stroke-linejoin:miter;stroke-opacity:1.0000000"
           d="M 120.96128,200.19978 C 120.96128,197.13757 121.72684,194.07536 121.72684,194.07536 L 123.25794,201.34811 L 120.96128,200.19978 z "
           id="path2156" />
      </g>
      <path
         sodipodi:nodetypes="cccccccccccccccccc"
         id="path1351"
         d="M 148.56918,158.48563 C 192.81525,148.02427 227.60306,138.06050 278.96960,139.14699 C 325.93920,137.59531 363.78930,138.47669 384.81395,139.96749 C 443.65232,152.89035 496.98475,173.34195 545.98110,189.07964 C 555.12604,193.38528 563.24312,190.86774 570.24668,181.81293 C 582.49527,160.47798 593.68979,139.26279 605.52813,130.12150 C 634.95425,117.46266 619.85841,132.23759 623.75578,147.00657 C 627.65315,161.77555 620.94490,189.54680 617.25068,208.06889 C 619.71218,219.55587 624.60474,218.12000 630.96360,235.14535 C 641.71941,253.92948 643.91887,271.00778 635.71388,284.19861 C 627.50889,284.19861 621.32273,289.70852 606.34863,276.17029 C 591.37453,262.63206 583.75646,249.12428 568.78236,236.20142 C 559.08459,227.67550 557.11276,224.30418 537.65833,225.35826 C 495.33979,233.44745 497.86216,237.57642 449.63336,247.45284 C 424.26867,256.44988 376.55404,244.05108 283.18591,250.79372 C 256.65134,252.26003 193.57090,243.28750 135.95932,232.21274 C 122.54283,228.87383 71.446955,204.21918 78.235579,196.54816 C 133.52785,207.46875 191.52092,211.20331 148.56918,158.48563 z "
         style="fill:#8c8cc8;fill-opacity:1.0000000;fill-rule:evenodd;stroke:#000000;stroke-width:1.0000000px;stroke-linecap:butt;stroke-linejoin:miter;stroke-opacity:1.0000000" />
      <path
         sodipodi:nodetypes="cscscc"
         id="path1363"
         d="M 215.24701,226.95410 C 213.28881,230.73205 211.71287,237.87799 211.93272,248.87035 C 212.15257,259.86271 215.82492,266.21367 218.83303,273.08885 C 225.89197,265.65109 225.54238,251.70964 236.95999,251.10413 C 248.84148,250.47402 236.77545,231.23283 230.39988,225.73665 C 228.35493,224.57109 220.40512,224.68931 215.24701,226.95410 z "
         style="fill:#d2a000;fill-opacity:1.0000000;fill-rule:evenodd;stroke:#000000;stroke-width:1.0000000px;stroke-linecap:butt;stroke-linejoin:miter;stroke-opacity:1.0000000" />
      <path
         sodipodi:nodetypes="csscscsss"
         id="path1365"
         d="M 191.70677,241.08321 C 206.43654,239.98397 203.57852,228.33206 211.05333,217.33970 C 218.52813,206.34734 220.94645,209.64505 216.32966,194.47559 C 211.71287,179.30613 205.54113,165.59911 192.58616,156.66187 C 180.71441,148.47191 181.70786,151.16240 163.84266,154.57289 C 136.77575,159.74000 90.960122,172.52207 77.582590,176.00843 C 78.831245,186.87913 101.27631,178.68941 117.77499,188.14736 C 137.05818,199.20154 139.35546,204.82930 152.13427,221.73665 C 166.42434,240.64351 176.97701,242.18244 191.70677,241.08321 z "
         style="fill:#8c8cc8;fill-opacity:1.0000000;fill-rule:evenodd;stroke:#000000;stroke-width:1.0000000px;stroke-linecap:butt;stroke-linejoin:miter;stroke-opacity:1.0000000" />
      <path
         transform="translate(22.00000,82.28571)"
         d="M 128.57143 100.93361 A 11.785714 12.142858 0 1 1  105.00000,100.93361 A 11.785714 12.142858 0 1 1  128.57143 100.93361 z"
         sodipodi:ry="12.142858"
         sodipodi:rx="11.785714"
         sodipodi:cy="100.93361"
         sodipodi:cx="116.78571"
         id="path2894"
         style="opacity:1.0000000;fill:#000000;fill-opacity:1.0000000;fill-rule:evenodd;stroke:none;stroke-width:1.6000000;stroke-miterlimit:4.0000000;stroke-dasharray:none;stroke-opacity:1.0000000"
         sodipodi:type="arc" />
      <g
         transform="translate(-2.000000,-2.000000)"
         id="g2138">
        <path
           sodipodi:type="arc"
           style="opacity:1.0000000;fill:#fffff6;fill-opacity:1.0000000;fill-rule:evenodd;stroke:#ffffff;stroke-width:1.6000000;stroke-miterlimit:4.0000000;stroke-dasharray:none;stroke-opacity:1.0000000"
           id="path2130"
           sodipodi:cx="97.607941"
           sodipodi:cy="110.73264"
           sodipodi:rx="11.100511"
           sodipodi:ry="11.483287"
           d="M 108.70845 110.73264 A 11.100511 11.483287 0 1 1  86.507430,110.73264 A 11.100511 11.483287 0 1 1  108.70845 110.73264 z"
           transform="matrix(0.871341,0.000000,0.000000,0.844188,55.13240,91.59816)" />
        <path
           sodipodi:type="arc"
           style="opacity:1.0000000;fill:#000000;fill-opacity:1.0000000;fill-rule:evenodd;stroke:none;stroke-width:1.6000000;stroke-miterlimit:4.0000000;stroke-dasharray:none;stroke-opacity:1.0000000"
           id="path2118"
           sodipodi:cx="96.076836"
           sodipodi:cy="120.30205"
           sodipodi:rx="9.5694056"
           sodipodi:ry="11.100511"
           d="M 105.64624 120.30205 A 9.5694056 11.100511 0 1 1  86.507430,120.30205 A 9.5694056 11.100511 0 1 1  105.64624 120.30205 z"
           transform="matrix(0.833828,0.000000,0.000000,0.724138,59.60178,97.49319)" />
      </g>
      <path
         sodipodi:nodetypes="csss"
         id="path2144"
         d="M 213.97191,172.74239 C 216.98878,167.06580 225.07243,166.90506 229.66574,172.35962 C 234.25906,177.81418 233.97197,191.21135 229.28296,190.73287 C 224.59395,190.25440 206.93950,185.97466 213.97191,172.74239 z "
         style="fill:#000013;fill-opacity:1.0000000;fill-rule:evenodd;stroke:#000000;stroke-width:1.0000000px;stroke-linecap:butt;stroke-linejoin:miter;stroke-opacity:1.0000000" />
      <path
         sodipodi:nodetypes="csc"
         id="path2892"
         d="M 247.08103,204.49078 C 278.23916,208.02233 334.72669,203.86261 385.46355,207.27771 C 436.30789,210.70004 513.04508,210.28309 562.06035,209.88607"
         style="fill:none;fill-opacity:0.75000000;fill-rule:evenodd;stroke:#000000;stroke-width:1.0000000px;stroke-linecap:butt;stroke-linejoin:miter;stroke-opacity:1.0000000" />
      <path
         sodipodi:nodetypes="csss"
         id="path3622"
         d="M 562.60987,202.63117 C 565.62674,196.95458 580.85325,197.50813 585.44656,202.96269 C 590.03988,208.41725 582.60993,213.24299 577.92092,212.76451 C 573.23191,212.28604 555.57746,215.86344 562.60987,202.63117 z "
         style="fill:#000013;fill-opacity:1.0000000;fill-rule:evenodd;stroke:#000000;stroke-width:1.0000000px;stroke-linecap:butt;stroke-linejoin:miter;stroke-opacity:1.0000000" />
      <path
         sodipodi:nodetypes="cccccccccccc"
         id="path3624"
         d="M 567.21803,186.11477 C 576.50633,172.00763 587.75461,150.70464 596.32604,138.56178 C 604.89747,126.41892 619.36261,123.46097 623.23992,125.27059 C 627.88277,132.05631 621.12097,136.92900 626.58237,155.11680 C 625.15380,176.36680 623.34504,190.57819 617.14286,209.12226 C 627.01728,225.75245 632.57604,231.21299 637.75461,249.96299 C 642.93318,268.71299 640.35628,277.38782 635.17771,284.88782 C 634.20967,285.49784 628.92599,286.26167 617.42310,284.17353 C 600.94412,275.57819 581.55932,247.64329 562.75460,230.21933 C 572.65810,228.10642 579.08064,222.23230 584.30962,216.77434 C 588.39027,213.23027 590.43145,204.76051 587.11550,197.66978 C 581.12011,190.19628 575.92021,187.20752 567.21803,186.11477 z "
         style="fill:#d2a000;fill-opacity:1.0000000;fill-rule:evenodd;stroke:#000000;stroke-width:1.0000000px;stroke-linecap:butt;stroke-linejoin:miter;stroke-opacity:1.0000000" />
    </g>
  </g>
</svg>
