<?xml version="1.0" encoding="UTF-8" standalone="no"?>
<!DOCTYPE svg PUBLIC "-//W3C//DTD SVG 1.1//EN" "http://www.w3.org/Graphics/SVG/1.1/DTD/svg11.dtd">
<!-- Created with Vectornator (http://vectornator.io/) -->
<svg height="100%" stroke-miterlimit="10" style="fill-rule:nonzero;clip-rule:evenodd;stroke-linecap:round;stroke-linejoin:round;" version="1.1" viewBox="0 0 3370.82 2384.24" width="100%" xml:space="preserve" xmlns="http://www.w3.org/2000/svg" xmlns:vectornator="http://vectornator.io" xmlns:xlink="http://www.w3.org/1999/xlink">
<defs/>
<clipPath id="ArtboardFrame">
<rect height="2384.24" width="3370.82" x="0" y="0"/>
</clipPath>
<g clip-path="url(#ArtboardFrame)" id="Layer-1" vectornator:layerName="Layer 1">
<g opacity="1">
<path d="M0 0L3374.06 0L3374.06 2385.26L0 2385.26L0 0Z" fill="#3d4a6d" fill-rule="nonzero" stroke="none"/>
<path d="M3362.75-4.40625C3350.48-4.38147 3338.21-4.33728 3325.94-4.3125C3274.5-4.20861 3223.04-4.10692 3171.59-4C2964.5-3.56956 2757.41-3.11638 2550.31-2.65625C1980.84-1.39098 1411.38-0.569105 841.906-0.25C653.574-0.144467 465.238-0.0662225 276.906-0.03125C215.33-0.0198155 153.764-0.109841 92.1875-0.1875C71.8269-0.213178 51.4543-0.255572 31.0938-0.28125C24.5609-0.289489 31.1029-0.273274 0-0.3125C-0.175109-0.3125-0.3125-0.175109-0.3125 0C-0.3125 0.175109-0.175109 0.3125 0 0.3125C11.5043 0.297991 7.68137 0.317316 11.5 0.3125C16.9489 0.305628 22.3948 0.288122 27.8438 0.28125C45.5743 0.258889 63.3007 0.241111 81.0312 0.21875C134.489 0.15133 187.948 0.0213231 241.406 0.03125C405.192 0.0616643 568.996 0.095722 732.781 0.1875C1230.51 0.466407 1728.24 1.00177 2225.97 1.96875C2481.24 2.46469 2736.51 3.06045 2991.78 3.625C3088.53 3.83896 3185.28 4.05461 3282.03 4.25C3302.32 4.29098 3322.61 4.33402 3342.91 4.375C3349.99 4.3893 3357.08 4.39195 3364.16 4.40625C3365.98 4.40993 3367.8 4.39711 3369.62 4.40625C3369.62 6.0391 3369.63 7.6484 3369.62 9.28125C3369.61 14.2786 3369.6 19.2839 3369.59 24.2812C3369.56 39.7754 3369.53 55.2871 3369.5 70.7812C3369.41 117.266 3369.33 163.734 3369.25 210.219C3369.01 349.207 3368.79 488.199 3368.62 627.188C3368.12 1044.73 3367.89 1462.27 3367.81 1879.81C3367.79 1992.25 3367.77 2104.66 3367.78 2217.09C3367.78 2254.46 3367.81 2291.85 3367.81 2329.22C3367.81 2341.56 3367.81 2353.91 3367.81 2366.25C3367.81 2370.5 3367.81 2374.75 3367.81 2379C3361.15 2378.97 3354.5 2379 3347.84 2379C3331.7 2379 3315.55 2379 3299.41 2379C3226.63 2379.01 3153.84 2379.04 3081.06 2379.06C2773.24 2379.17 2465.42 2379.29 2157.59 2379.59C1643.69 2380.1 1129.78 2381.04 615.875 2382.09C470.99 2382.39 326.104 2382.67 181.219 2382.97C138.744 2383.06 96.2869 2383.14 53.8125 2383.22C41.0702 2383.24 28.3048 2383.26 15.5625 2383.28C11.787 2383.29 8.02551 2383.31 4.25 2383.31C3.48245 2383.31 2.70505 2383.31 1.9375 2383.31C1.95646 2380.85 1.9108 2378.4 1.90625 2375.94C1.89404 2369.34 1.88721 2362.72 1.875 2356.12C1.83837 2336.33 1.81383 2316.55 1.78125 2296.75C1.68415 2237.74 1.56585 2178.73 1.46875 2119.72C1.17813 1943.1 1.47959 2119.03 0 0.3125C-0.963288 1748.89-0.268075 1166.25-0.96875 1749.34C-1.15582 1905.02-1.36883 2060.7-1.625 2216.38C-1.69335 2257.92-1.7669 2299.46-1.84375 2341C-1.86386 2351.87-1.88614 2362.72-1.90625 2373.59C-1.91128 2376.31-1.93247 2379.03-1.9375 2381.75C-1.93822 2382.14-1.93678 2382.55-1.9375 2382.94C-1.93929 2383.9-2.10363 2385.18-1.5625 2386.03C-1.25489 2386.51-0.759833 2386.89-0.21875 2387.06C0.619034 2387.34 2.0061 2387.19 2.84375 2387.19C3.31569 2387.19 3.77806 2387.19 4.25 2387.19C4.72194 2387.19 5.18431 2387.19 5.65625 2387.19C6.12819 2387.19 6.62181 2387.19 7.09375 2387.19C8.03763 2387.19 8.96237 2387.22 9.90625 2387.22C20.7608 2387.24 31.6142 2387.26 42.4688 2387.28C86.8309 2387.36 131.2 2387.44 175.562 2387.53C361.077 2387.91 546.579 2388.28 732.094 2388.66C1395.82 2390.01 2059.55 2391.02 2723.28 2391.31C2887.04 2391.39 3050.8 2391.48 3214.56 2391.5C3255.19 2391.51 3295.84 2391.49 3336.47 2391.5C3346.27 2391.5 3356.05 2391.5 3365.84 2391.5C3366.94 2391.5 3368.03 2391.5 3369.12 2391.5C3372.48 2391.5 3376.27 2391.99 3378.72 2389.12C3380.8 2386.69 3380.31 2383.21 3380.31 2380.25C3380.31 2376.58 3380.31 2372.92 3380.31 2369.25C3380.31 2352.23 3380.31 2335.2 3380.31 2318.19C3380.32 2250.79 3380.35 2183.39 3380.34 2116C3380.31 1845.44 3380.25 1574.88 3380.09 1304.31C3379.91 983.617 3379.57 662.946 3379.09 342.25C3378.97 255.847 3378.81 169.434 3378.66 83.0312C3378.62 61.9174 3378.57 40.8014 3378.53 19.6875C3378.52 14.6736 3378.51 9.67014 3378.5 4.65625C3378.5 2.42824 3378.89-0.771227 3377.34-2.625C3376.65-3.46251 3375.68-4.03404 3374.62-4.28125C3373.59-4.52229 3372.27-4.40837 3371.22-4.40625C3370.75-4.4053 3370.28-4.4072 3369.81-4.40625C3369.34-4.4053 3368.88-4.4072 3368.41-4.40625C3367.46-4.40434 3366.51-4.40816 3365.56-4.40625C3364.62-4.40434 3363.69-4.40816 3362.75-4.40625Z" fill="#0d2852" stroke="none"/>
</g>
<g opacity="1">
<path d="M470.438 318.625C457.435 318.884 444.419 320.722 431.812 323.594C417.181 326.927 402.878 331.847 389.406 338.469C382.773 341.729 376.263 345.39 370.219 349.656C361.09 356.1 353.26 364.154 344.688 371.281C339.452 375.635 333.815 379.786 327.5 382.438C320.584 385.342 313.134 385.756 305.719 385.344C298.235 384.928 290.829 383.715 283.438 382.531C271.947 380.691 260.456 378.893 248.969 377.031C244.245 376.266 239.542 375.45 234.812 374.719C227.342 373.564 219.245 373.697 212.312 370.281C208.776 368.539 205.83 366.008 203.062 363.25C206.075 366.23 209.187 369.121 213.062 370.938C218.036 373.268 223.567 373.912 228.938 374.719C231.856 375.157 234.742 375.752 237.625 376.375C253.162 379.733 268.547 383.652 283.844 387.969C298.919 392.223 315.579 397.046 331.031 391.938C351.015 385.331 364.459 367.666 381.969 356.875C390.972 351.326 400.556 346.721 410.375 342.812C423.989 337.393 438.14 333.297 452.5 330.406C465.589 327.771 479.053 325.812 492.438 326.344C498.337 326.578 504.263 327.325 509.969 328.875C513.959 329.959 517.811 331.49 521.562 333.219C528.457 336.395 534.977 340.364 541.188 344.719C551.779 352.145 561.425 360.744 571.062 369.344C576.755 374.424 582.496 379.469 588.312 384.406C584.475 381.111 580.658 377.799 576.906 374.406C567.788 366.161 558.96 357.599 549.625 349.594C542.283 343.298 534.62 337.357 526.375 332.281C522.345 329.8 518.164 327.466 513.812 325.594C504.209 321.461 493.793 319.597 483.406 318.906C479.096 318.619 474.772 318.539 470.438 318.625ZM203.062 363.25C200.295 360.492 197.706 357.495 194.938 354.812C194.808 354.695 194.618 354.714 194.5 354.844C194.382 354.973 194.37 355.164 194.5 355.281C196.992 357.395 199.387 359.648 201.688 361.969C202.13 362.414 202.616 362.808 203.062 363.25Z" fill="#0d2852" stroke="none"/>
</g>
<g opacity="1">
<path d="M1987.62 226.938C1975.58 226.882 1963.5 227.803 1952.19 232.125C1947.3 233.991 1942.68 236.452 1938.56 239.688C1934.46 242.907 1930.95 246.759 1927.41 250.562C1924.24 253.963 1921.11 257.367 1918.25 261.031C1910.59 270.833 1904.08 281.435 1897.25 291.812C1891.7 300.252 1885.88 308.671 1878.72 315.844C1874.93 319.642 1870.78 323.157 1866.06 325.75C1861.46 328.281 1856.56 330.16 1851.88 332.531C1847.54 334.728 1843.37 337.56 1838.66 338.906C1836 339.663 1833.16 339.845 1830.44 340.219C1826.74 340.726 1823.04 341.24 1819.34 341.688C1806.12 343.288 1792.88 344.56 1779.59 345.562C1765.77 346.605 1751.89 347.209 1738.03 347.688C1725.25 348.129 1712.45 348.489 1699.66 348.438C1694.33 348.416 1688.98 348.059 1683.66 347.844C1683.27 347.844 1682.97 348.149 1682.97 348.531C1682.97 348.913 1683.27 349.219 1683.66 349.219C1688.98 348.993 1694.33 348.623 1699.66 348.562C1702.85 348.526 1706.05 348.592 1709.25 348.594C1717.78 348.599 1726.34 348.616 1734.88 348.656C1753.56 348.745 1772.22 348.786 1790.91 348.781C1801.6 348.779 1812.3 348.736 1823 348.719C1826.75 348.713 1830.53 348.699 1834.28 348.656C1836.35 348.633 1838.41 348.642 1840.47 348.375C1846.07 347.647 1851.19 345.276 1856.5 343.5C1862.22 341.586 1868.12 340.278 1873.72 338C1882.59 334.392 1890.51 328.47 1897.53 322.031C1904.95 315.224 1911.5 307.575 1917.84 299.781C1923.77 292.509 1929.44 285.008 1935.72 278.031C1939.17 274.194 1942.83 270.623 1946.56 267.062C1949.28 264.473 1951.94 261.745 1955.12 259.719C1960.22 256.477 1966.87 255.217 1972.78 254.594C1984.05 253.407 1995.44 254.436 2006.72 254.875C2011.41 255.058 2016.09 255.083 2020.78 254.938C2027.68 254.723 2034.57 254.243 2041.47 254.5C2045.85 254.663 2050.19 255.253 2054.5 256C2063.85 257.619 2072.99 260.212 2082.03 263.062C2095.09 267.179 2108.09 271.595 2121 276.156C2160.51 290.115 2199.58 305.375 2237.84 322.469C2256.76 330.921 2275.23 340.309 2294.19 348.688C2299.54 351.054 2304.99 353.271 2310.47 355.344C2316.73 357.713 2323.08 359.909 2329.59 361.469C2347.23 365.691 2365.51 365.556 2383.53 365.5C2365.52 365.429 2347.29 365.406 2329.78 360.656C2319.45 357.854 2309.54 353.482 2299.94 348.812C2282.1 340.14 2265.26 329.604 2248.22 319.5C2223.92 305.094 2199.72 290.445 2174.84 277.031C2156.29 267.026 2137.31 257.764 2117.84 249.656C2101.58 242.88 2085.26 236.006 2068.16 231.625C2058.86 229.244 2049.34 227.5 2039.72 227.25C2029.88 226.994 2020.03 227.827 2010.19 227.594C2006.67 227.51 2003.15 227.355 1999.62 227.219C1995.65 227.065 1991.64 226.956 1987.62 226.938Z" fill="#5e752e" stroke="none"/>
</g>
<g opacity="1">
<path d="M2427.19 871.938C2415.95 871.896 2404.72 872.385 2393.59 874.219C2379.74 876.503 2366.23 881.459 2354.31 888.906C2337.56 899.38 2323.97 914.827 2316.12 933C2310.61 945.776 2308.89 959.599 2305.28 972.938C2302.18 984.391 2297.03 995.137 2290.56 1005.06C2288.94 1007.56 2287.25 1010.02 2285.47 1012.41C2283.62 1014.89 2281.71 1017.32 2280 1019.91C2277.67 1023.42 2275.49 1027.15 2272.53 1030.19C2271.27 1031.48 2269.77 1032.75 2268.06 1033.41C2266.59 1033.97 2264.99 1034.07 2263.44 1034.03C2260.65 1033.95 2257.92 1033.46 2255.16 1033.16C2253.11 1032.93 2251.06 1032.87 2249 1032.84C2243.41 1032.77 2237.8 1032.95 2232.22 1032.5C2228.82 1032.23 2225.4 1031.79 2222.16 1030.69C2218.11 1029.31 2214.38 1027.1 2210.69 1024.97C2207.06 1022.87 2203.42 1020.84 2199.88 1018.59C2178.61 1005.09 2160.71 987.157 2144 968.469C2138.51 962.334 2133.25 956.022 2128 949.688C2126.32 947.665 2124.64 945.623 2122.94 943.625C2121.96 942.485 2120.96 941.385 2120.06 940.188C2116.44 935.382 2113.92 928.812 2108.5 925.688C2107.24 924.961 2105.93 924.585 2104.53 924.219C2102.76 923.756 2100.98 923.332 2099.19 922.969C2092.93 921.698 2086.59 920.973 2080.22 920.531C2071.52 919.928 2062.81 919.859 2054.09 919.625C2048.29 919.469 2042.49 919.139 2036.69 918.938C2039.29 919.001 2041.87 919.235 2044.47 919.375C2048.13 919.572 2051.81 919.694 2055.47 919.812C2064.63 920.109 2073.78 920.305 2082.91 921.188C2089.23 921.799 2095.52 922.767 2101.69 924.312C2104.14 924.927 2106.69 925.446 2108.78 926.938C2113.46 930.27 2115.75 936.404 2119 940.969C2120.14 942.567 2121.4 944.064 2122.62 945.594C2123.99 947.296 2125.35 949.028 2126.69 950.75C2130.99 956.277 2135.22 961.858 2139.66 967.281C2156.58 987.962 2174.41 1008.29 2196.25 1023.94C2199.74 1026.44 2203.35 1028.75 2206.94 1031.09C2210.92 1033.7 2214.94 1036.32 2219.38 1038.09C2229.24 1042.04 2240.48 1041.54 2250.91 1042.28C2255.64 1042.62 2260.23 1044.04 2265 1044.03C2266.8 1044.03 2268.6 1043.84 2270.34 1043.38C2280.19 1040.77 2285.06 1031.1 2290.78 1023.66C2292.73 1021.13 2294.78 1018.72 2296.69 1016.16C2299.77 1012.01 2302.67 1007.71 2305.28 1003.25C2307.58 999.323 2309.67 995.248 2311.53 991.094C2314.52 984.408 2316.74 977.479 2318.5 970.375C2320.91 960.645 2322.63 950.646 2326.22 941.25C2332.35 925.202 2343.76 911.199 2357.88 901.5C2368.65 894.098 2380.98 889.055 2393.78 886.5C2415.2 882.227 2437.45 883.502 2459.16 883.562C2476.93 883.612 2494.89 882.193 2512.56 884.75C2522.08 886.127 2531.24 888.987 2540.16 892.531C2567.04 903.218 2591.04 919.725 2616.19 933.781C2629.28 941.098 2642.86 947.976 2657.19 952.531C2676.38 958.634 2696.72 960.097 2716.75 960.188C2728.93 960.243 2741.08 959.764 2753.25 959.375C2740.64 959.71 2728.02 960.046 2715.41 959.844C2695.91 959.532 2676.14 957.596 2657.62 951.188C2643.07 946.152 2629.45 938.598 2616.38 930.562C2591.15 915.06 2567.44 896.745 2540.19 884.781C2531.73 881.07 2523.08 878.031 2514 876.281C2496.49 872.907 2478.6 873.523 2460.88 872.938C2449.67 872.568 2438.43 871.979 2427.19 871.938ZM2753.25 959.375C2761.17 959.165 2769.11 958.944 2777.03 958.875C2770.17 958.953 2763.3 959.075 2756.44 959.281C2755.37 959.313 2754.31 959.341 2753.25 959.375ZM2036.69 918.938C2035.46 918.895 2034.23 918.802 2033 918.781C2028.07 918.696 2023.12 918.816 2018.19 918.781C2018.01 918.783 2017.87 918.919 2017.88 919.094C2017.88 919.269 2018.01 919.408 2018.19 919.406C2024.34 919.253 2030.53 918.786 2036.69 918.938Z" fill="#0d2852" stroke="none"/>
</g>
<g opacity="1">
<path d="M516.406 864.938C512.876 865.073 509.336 865.263 505.812 865.25C505.637 865.252 505.498 865.387 505.5 865.562C505.502 865.738 505.637 865.877 505.812 865.875C511.927 865.689 518.066 864.818 524.188 864.969C521.591 864.89 519.007 864.837 516.406 864.938ZM524.188 864.969C524.49 864.978 524.791 864.956 525.094 864.969C525.02 864.965 524.949 864.94 524.875 864.938C524.646 864.929 524.417 864.974 524.188 864.969ZM525.094 864.969C527.226 865.063 529.335 865.339 531.438 865.688C529.949 865.435 528.472 865.082 526.969 864.969C526.344 864.922 525.719 864.996 525.094 864.969ZM531.438 865.688C531.865 865.76 532.292 865.828 532.719 865.906C532.292 865.83 531.865 865.758 531.438 865.688ZM532.719 865.906C534.794 866.279 536.871 866.694 538.938 867.094C544.804 868.228 550.681 869.42 556.438 871.031C562.121 872.622 567.726 874.617 573 877.281C574.628 878.103 576.369 878.916 577.781 880.094C581.837 883.475 582.887 889.323 584.625 894C585.645 896.744 587.044 899.304 588.312 901.938C590.374 906.219 592.361 910.54 594.375 914.844C596.96 920.369 599.749 925.791 602.531 931.219C605.49 936.991 608.398 942.799 611.25 948.625C619.088 964.638 626.417 980.899 633.375 997.312C641.189 1015.75 649.04 1034.61 661.438 1050.53C669.06 1060.32 678.629 1068.91 690.5 1073.06C695.769 1074.9 701.387 1075.62 706.938 1075.94C713.814 1076.33 720.671 1075.91 727.531 1075.44C733.618 1075.01 739.871 1074.5 745.375 1071.62C753.572 1067.34 757.654 1058.96 763.25 1052.06C772.629 1040.5 782.09 1028.94 792.125 1017.94C807.905 1000.64 824.673 984.128 842.5 968.938C858.835 955.019 876.121 942.08 894.656 931.219C903.891 925.807 913.602 921.248 923.688 917.656C960.04 904.71 999.123 904.305 1037.25 903.656C1042.65 903.564 1048.02 903.462 1053.41 903.156C1062.27 902.654 1071.17 901.893 1080.06 902.312C1085.11 902.551 1090.09 903.234 1095.03 904.281C1112.81 908.052 1129.36 915.771 1146.16 922.438C1155.53 926.158 1164.98 929.457 1174.78 931.875C1164.99 929.429 1155.55 926.1 1146.19 922.344C1129.36 915.594 1112.93 907.683 1095.19 903.562C1090.22 902.409 1085.22 901.575 1080.12 901.219C1071.21 900.594 1062.27 901.068 1053.34 901.281C1047.43 901.423 1041.51 901.321 1035.59 901.188C997.353 900.326 958.149 898.514 921.062 909.656C910.242 912.907 899.772 917.228 889.812 922.562C863.478 936.667 839.499 954.876 817.469 974.969C805.44 985.94 793.879 997.5 782.875 1009.5C772.633 1020.67 763.052 1032.44 753.594 1044.28C750.962 1047.57 748.755 1051.15 746.25 1054.53C744.457 1056.95 742.378 1059.45 739.688 1060.91C735.748 1063.05 730.956 1063.2 726.594 1063.59C719.522 1064.23 712.417 1064.85 705.312 1064.44C700.888 1064.18 696.468 1063.6 692.281 1062.09C684.905 1059.45 678.546 1054.53 673.094 1049C663.237 1039 655.83 1026.74 649.219 1014.44C647.079 1010.46 645.024 1006.42 643 1002.38C640.457 997.299 637.939 992.191 635.375 987.125C627.58 971.728 619.412 956.523 611.031 941.438C605.551 931.573 599.868 921.842 594.75 911.781C592.986 908.313 591.245 904.837 589.469 901.375C588.15 898.805 586.7 896.311 585.625 893.625C583.713 888.849 582.459 882.926 578.219 879.531C576.742 878.35 574.94 877.564 573.25 876.75C572.147 876.219 570.785 875.6 569.656 875.125C564.786 873.073 559.718 871.526 554.594 870.25C548.784 868.803 542.886 867.677 537 866.594C535.582 866.333 534.141 866.167 532.719 865.906Z" fill="#0d2852" stroke="none"/>
</g>
<g opacity="1">
<path d="M1152.91 1236.56C1148.96 1236.46 1145.01 1236.48 1141.06 1236.62C1129 1237.07 1116.98 1238.59 1105.19 1241.19C1078 1247.17 1052.32 1258.34 1028.06 1271.84C1025.99 1273 1023.9 1274.17 1021.75 1275.19C1017.91 1277 1013.95 1278.6 1010.41 1280.97C1008.26 1282.4 1006.33 1284.15 1004.34 1285.78C1001.39 1288.21 998.441 1290.62 995.5 1293.06C987.526 1299.67 979.491 1306.22 971.5 1312.81C956.801 1324.94 941.989 1336.9 927.344 1349.09C918.149 1356.75 909.058 1364.52 899.875 1372.19C895.703 1375.67 891.32 1378.93 887.062 1382.31C886.773 1382.56 886.75 1382.99 887 1383.28C887.25 1383.57 887.679 1383.59 887.969 1383.34C891.54 1380 895.073 1376.61 898.719 1373.34C901.147 1371.17 903.707 1369.14 906.219 1367.06C910.829 1363.25 915.503 1359.53 920.188 1355.81C936.796 1342.63 953.902 1330.05 971.344 1318C981.187 1311.2 991.161 1304.62 1001.25 1298.19C1004 1296.43 1006.77 1294.71 1009.53 1292.97C1011.44 1291.76 1013.33 1290.44 1015.38 1289.47C1018.22 1288.12 1021.3 1287.3 1024.31 1286.41C1026.95 1285.63 1029.53 1284.76 1032.09 1283.78C1053.7 1275.53 1075.94 1268.95 1098.78 1265.19C1111.11 1263.15 1123.62 1261.99 1136.12 1261.94C1140.45 1261.92 1144.78 1262.03 1149.09 1262.28C1151.86 1262.44 1154.6 1262.72 1157.38 1262.84C1162.19 1263.05 1167.03 1262.89 1171.84 1263.19C1174.4 1263.35 1177 1263.59 1179.41 1264.5C1181.42 1265.26 1183.28 1266.55 1184.94 1267.91C1187.96 1270.37 1190.57 1273.32 1193.09 1276.28C1194.96 1278.47 1196.76 1280.72 1198.62 1282.91C1200.07 1284.6 1201.58 1286.21 1202.88 1288.03C1205.76 1292.1 1208.18 1296.54 1210.91 1300.72C1216.21 1308.84 1221.46 1316.98 1226.62 1325.19C1239.92 1346.32 1253.52 1367.56 1271.59 1385C1277.08 1390.29 1282.94 1395.19 1288.88 1399.97C1299.69 1408.68 1311.67 1416.74 1324.91 1421.25C1345.5 1428.27 1366.94 1425.16 1388.12 1423.91C1397.76 1423.33 1407.42 1423.54 1417.06 1423.09C1424.34 1422.76 1431.52 1421.94 1438.69 1420.69C1458.54 1417.22 1477.9 1411.14 1496.94 1404.62C1511.45 1399.65 1525.92 1394.54 1540.47 1389.69C1523.25 1395.3 1506.17 1401.33 1488.81 1406.5C1471.53 1411.65 1453.9 1415.92 1435.91 1417.59C1430.83 1418.07 1425.73 1418.31 1420.62 1418.19C1409.77 1417.93 1398.99 1416.56 1388.16 1415.91C1369.08 1414.75 1348.43 1415.25 1330.91 1406.5C1322.52 1402.32 1315.07 1396.21 1308.22 1389.88C1304.41 1386.36 1300.76 1382.69 1297.16 1378.97C1294.56 1376.29 1291.95 1373.63 1289.47 1370.84C1274.24 1353.75 1262.7 1333.86 1251.12 1314.22C1247.05 1307.31 1243.01 1300.39 1238.75 1293.59C1236.56 1290.1 1234.22 1286.7 1232.06 1283.19C1229.44 1278.92 1227.01 1274.54 1224 1270.53C1222.57 1268.62 1220.97 1266.84 1219.41 1265.03C1217.53 1262.86 1215.69 1260.64 1213.81 1258.47C1206.79 1250.35 1198.78 1242.65 1188.44 1239.06C1183.98 1237.52 1179.29 1236.81 1174.59 1236.56C1169.47 1236.29 1164.32 1236.64 1159.19 1236.69C1157.09 1236.71 1155.01 1236.61 1152.91 1236.56Z" fill="#5e752e" stroke="none"/>
</g>
<g opacity="1">
<path d="M2439.53 1294.38C2435.95 1294.64 2432.47 1295.82 2429.22 1297.38C2427.12 1298.38 2425.12 1299.54 2423.06 1300.62C2421.63 1301.38 2420.11 1301.99 2418.66 1302.69C2416.51 1303.71 2414.42 1304.81 2412.34 1305.97C2405.43 1309.83 2398.92 1314.34 2392.31 1318.69C2387.77 1321.68 2383.11 1324.51 2378.62 1327.59C2371.96 1332.19 2365.57 1337.15 2359.28 1342.25C2345.88 1353.13 2333.36 1365.03 2320.56 1376.59C2310.22 1385.94 2299.76 1395.13 2289.03 1404.03C2286.37 1406.24 2283.75 1408.52 2281.03 1410.66C2277.54 1413.41 2273.89 1415.98 2270.31 1418.62C2270.02 1418.87 2269.98 1419.3 2270.22 1419.59C2270.46 1419.89 2270.89 1419.93 2271.19 1419.69C2274.49 1416.71 2277.74 1413.63 2281.12 1410.75C2285.64 1406.92 2290.36 1403.31 2295 1399.62C2301.47 1394.48 2307.88 1389.28 2314.31 1384.09C2334.68 1367.66 2355.29 1351.27 2378.72 1339.34C2385.22 1336.03 2391.98 1333.34 2398.66 1330.41C2405.58 1327.36 2412.45 1324.13 2419.56 1321.53C2422.74 1320.37 2425.99 1319.5 2429.22 1318.5C2430.74 1318.03 2432.24 1317.44 2433.75 1316.91C2435.47 1316.3 2437.19 1315.61 2439 1315.31C2439.25 1315.27 2440.08 1315.07 2440.31 1315.31C2440.34 1315.34 2440.28 1315.39 2440.25 1315.41C2440.19 1315.43 2439.78 1315.43 2439.78 1315.44C2439.76 1315.5 2439.87 1315.52 2439.91 1315.56C2440.04 1315.71 2440.15 1315.88 2440.28 1316.03C2440.87 1316.76 2441.37 1317.56 2441.84 1318.38C2443.45 1321.17 2444.74 1324.15 2446.31 1326.97C2448.9 1331.61 2452.17 1335.85 2455.19 1340.22C2459.79 1346.89 2464.35 1353.59 2468.88 1360.31C2482.77 1380.93 2497.07 1401.26 2511.06 1421.81C2515.23 1427.94 2519.44 1434.05 2523.5 1440.25C2529.26 1449.05 2534.43 1458.22 2540.78 1466.62C2549.99 1478.82 2562.31 1489.62 2576.38 1495.78C2584.63 1499.4 2593.45 1501.27 2602.44 1501.72C2609.12 1502.05 2615.81 1501.59 2622.47 1501C2629.64 1500.36 2636.79 1499.53 2643.97 1498.97C2661.53 1497.6 2679.34 1497.61 2696.66 1494.09C2723.13 1488.72 2748.52 1479.28 2773.75 1469.81C2782.1 1466.68 2790.47 1463.62 2798.84 1460.56C2775.66 1468.81 2752.58 1477.61 2728.66 1483.5C2717.91 1486.15 2706.97 1488.29 2695.94 1489.31C2677.85 1490.99 2659.86 1488.28 2641.84 1487C2633.59 1486.41 2625.31 1486.15 2617.06 1485.44C2608.61 1484.71 2600.12 1483.42 2592.25 1480.09C2584.28 1476.73 2577.36 1471.27 2571.34 1465.12C2563.11 1456.7 2557.59 1446.57 2551.88 1436.38C2548.22 1429.86 2544.39 1423.46 2540.38 1417.16C2522.42 1388.96 2503.04 1361.64 2482.81 1335.03C2479.22 1330.3 2475.47 1325.67 2471.72 1321.06C2470.28 1319.3 2468.78 1317.58 2467.38 1315.78C2465.1 1312.87 2463.37 1309.56 2461.22 1306.56C2456.86 1300.5 2450.83 1295.26 2443.12 1294.44C2441.91 1294.31 2440.73 1294.29 2439.53 1294.38Z" fill="#5e752e" stroke="none"/>
</g>
<g opacity="1">
<path d="M1240.22 442.906C1237.3 442.964 1234.39 443.104 1231.59 444C1227.46 445.322 1223.52 447.312 1219.66 449.25C1214.74 451.716 1209.9 454.343 1205.16 457.125C1201.1 459.499 1197.1 461.958 1193.25 464.656C1191.15 466.132 1189.02 467.69 1187.22 469.531C1185.54 471.246 1184.3 473.366 1182.91 475.312C1181.32 477.543 1179.7 479.756 1178 481.906C1171.83 489.711 1164.99 496.895 1157.25 503.156C1149.81 509.175 1141.72 514.308 1134.34 520.406C1125.63 527.612 1118.25 536.202 1111.59 545.312C1109.55 548.107 1107.6 550.961 1105.69 553.844C1104.95 554.951 1104.21 556.04 1103.59 557.219C1101.94 560.383 1101.24 563.798 1100.47 567.25C1099.54 571.425 1098.74 575.661 1097.47 579.75C1097.37 580.12 1097.6 580.498 1097.97 580.594C1098.34 580.689 1098.72 580.464 1098.81 580.094C1100.33 572.8 1100.03 565.094 1103.34 558.25C1104.34 556.199 1105.68 554.381 1107 552.531C1108.65 550.215 1110.35 547.937 1112.09 545.688C1119.72 535.818 1128.53 526.997 1138.91 520.031C1147.29 514.405 1156.35 509.848 1164.66 504.094C1171.26 499.52 1177.48 494.487 1183.38 489.031C1187.24 485.455 1190.87 481.685 1194.59 477.969C1194.91 477.655 1195.61 477.375 1196 477.156C1196.89 476.649 1197.8 476.2 1198.72 475.75C1202.1 474.095 1205.59 472.658 1209.09 471.281C1215.09 468.926 1221.16 466.754 1227.31 464.844C1229.52 464.158 1231.75 463.483 1234 462.938C1234.64 462.782 1235.29 462.645 1235.94 462.531C1236.14 462.496 1236.53 462.45 1236.75 462.438C1236.84 462.433 1237.08 462.429 1237 462.469C1236.93 462.504 1236.86 462.48 1236.78 462.5C1236.72 462.516 1236.88 462.555 1236.94 462.562C1237.08 462.58 1237.2 462.579 1237.34 462.594C1237.75 462.637 1238.16 462.701 1238.56 462.75C1239.8 462.9 1241.01 463.046 1242.25 463.219C1245.31 463.646 1248.37 464.166 1251.41 464.688C1260.65 466.274 1269.87 467.972 1279.03 469.969C1281.33 470.469 1283.61 470.995 1285.88 471.625C1286.76 471.871 1287.64 472.16 1288.5 472.5C1288.51 472.504 1288.52 472.496 1288.53 472.5C1288.55 472.51 1288.57 472.522 1288.59 472.531C1290.88 473.946 1293.46 474.981 1296 475.781C1299.91 477.016 1303.95 477.786 1308 478.438C1318.72 480.163 1329.57 480.827 1340.34 482.062C1346.23 482.737 1352.24 483.279 1357.97 484.875C1358.89 485.131 1359.75 485.456 1360.62 485.844C1362.79 487.582 1364.94 489.329 1367 491.188C1370.55 494.395 1373.98 497.75 1377.38 501.125C1383.11 506.827 1388.76 512.604 1394.88 517.906C1400.37 522.67 1406.24 527.031 1412.53 530.688C1418.37 534.083 1424.56 536.953 1430.72 539.719C1437.57 542.797 1444.64 545.722 1451.94 547.594C1457.27 548.962 1462.73 549.614 1468.16 550.5C1468.88 550.618 1469.58 550.805 1470.31 550.875C1470.41 550.885 1470.53 550.793 1470.62 550.812C1471.54 550.993 1472.39 551.376 1473.28 551.656C1474.34 551.99 1475.41 552.324 1476.47 552.656C1478.45 553.276 1480.47 553.796 1482.44 554.438C1484.12 554.985 1485.73 555.829 1487.34 556.531C1490.03 557.698 1492.72 558.866 1495.41 560.031C1499.94 562 1504.47 563.973 1508.91 566.156C1523.19 573.177 1537.13 581.076 1552.19 586.375C1558.31 588.531 1564.64 590.199 1571.06 591.188C1581.71 592.826 1592.59 592.973 1603.34 592.906C1625.23 592.771 1647.06 590.971 1668.94 590.781C1645.78 590.795 1622.55 592.572 1599.41 591.094C1587.08 590.307 1574.53 588.918 1562.88 584.594C1547.28 578.805 1533.87 568.797 1520.47 559.188C1516.96 556.671 1513.46 554.135 1509.84 551.781C1506.13 549.365 1502.34 547.057 1498.59 544.688C1496.53 543.383 1494.47 542.054 1492.41 540.75C1491.44 540.139 1490.48 539.504 1489.47 538.969C1486.89 537.605 1484.2 536.441 1481.56 535.188C1479.91 534.401 1478.24 533.488 1476.53 532.844C1475.27 532.37 1473.88 532.058 1472.59 531.656C1467.82 530.172 1462.95 529.001 1458.28 527.188C1451.09 524.39 1444.28 520.553 1437.62 516.688C1432.47 513.697 1427.27 510.777 1422.5 507.188C1409.95 497.739 1400.14 485.335 1388.91 474.469C1386.09 471.741 1383.18 469.093 1380.19 466.562C1377.66 464.428 1375.14 462.436 1372.12 461.031C1365.49 457.936 1358.25 456.847 1351.06 455.844C1340.78 454.408 1330.34 453.964 1320 453.125C1315.4 452.752 1310.81 452.368 1306.25 451.594C1305 451.381 1303.75 451.131 1302.53 450.781C1302.27 450.706 1301.61 450.578 1301.31 450.438C1300.18 449.906 1299.12 449.276 1297.94 448.844C1295.88 448.094 1293.73 447.619 1291.59 447.188C1285.7 445.999 1279.72 445.277 1273.75 444.656C1266.56 443.909 1259.35 443.368 1252.12 443.094C1248.16 442.943 1244.19 442.828 1240.22 442.906Z" fill="#5e752e" stroke="none"/>
</g>
<g opacity="1">
<path d="M2562.78 476.062C2562.61 476.01 2562.43 476.083 2562.38 476.25C2562.32 476.417 2562.43 476.604 2562.59 476.656C2566.8 477.862 2570.87 479.399 2575.03 480.75C2575.48 480.896 2575.95 480.955 2576.41 481.094C2571.78 479.677 2567.35 477.609 2562.78 476.062ZM2576.41 481.094C2577.42 481.406 2578.46 481.612 2579.5 481.844C2578.47 481.602 2577.42 481.404 2576.41 481.094ZM2579.5 481.844C2580.42 482.059 2581.31 482.403 2582.25 482.531C2584.91 482.895 2587.63 482.98 2590.31 483.125C2594.97 483.377 2599.64 483.556 2604.31 483.656C2617.3 483.934 2630.27 483.816 2643.25 483.812C2647.4 483.811 2651.57 483.831 2655.72 483.875C2659.49 483.915 2663.26 483.977 2667 484.562C2671.26 485.229 2675.67 486.518 2678.84 489.594C2681.64 492.303 2682.79 496.156 2685.41 499C2687.88 501.688 2691.61 502.368 2695.09 502.219C2698.77 502.061 2702.41 501.195 2705.94 500.188C2707.95 499.611 2709.96 498.861 2712.03 498.5C2716.35 497.747 2720.45 498.92 2724.75 499.188C2725.88 499.258 2727.11 499.164 2728.25 499.125C2730.61 499.044 2733.03 498.402 2735.31 497.781C2737.12 497.289 2738.83 496.759 2740.72 496.719C2742.96 496.672 2745.02 497.365 2747.16 497.969C2748.62 498.383 2750.18 498.909 2751.69 499.125C2752.92 499.302 2754.31 499.315 2755.56 499.344C2756.23 499.359 2756.9 499.421 2757.56 499.344C2758.27 499.261 2758.96 499.01 2759.66 498.844C2760.36 498.677 2761.05 498.517 2761.75 498.344C2763.53 501.02 2764.79 504.269 2765.94 507.188C2768.05 512.545 2769.91 517.984 2772.09 523.312C2773.42 526.531 2774.8 529.885 2776.91 532.688C2777.57 533.573 2778.33 534.393 2779.22 535.062C2779.97 535.633 2780.83 536.041 2781.66 536.5C2782.93 537.21 2784.19 537.969 2785.44 538.719C2789.86 541.37 2794.22 544.221 2798.19 547.531C2799.9 548.961 2801.69 550.499 2802.94 552.375C2803.66 553.46 2803.76 554.804 2804.44 555.938C2805.82 558.252 2808.2 559.769 2810.88 560.094C2813.71 560.438 2816.52 559.553 2819.09 558.438C2823.33 556.602 2827.23 554.072 2831.31 551.938C2831.49 551.844 2831.69 551.782 2831.88 551.688C2832.26 552.686 2832.75 553.638 2833.44 554.469C2836.35 557.993 2840.85 558.253 2844.66 556.125C2848.16 554.161 2850.93 550.843 2853.5 547.844C2856.89 543.894 2860.06 539.792 2863.56 535.938C2865.18 534.152 2866.85 532.338 2868.78 530.875C2869.2 530.555 2869.63 530.335 2870.06 530.094C2870.12 530.234 2870.25 530.366 2870.28 530.438C2870.73 531.462 2871.14 532.482 2871.59 533.5C2873.48 537.698 2875.59 541.802 2877.84 545.812C2882.67 554.401 2888.14 562.596 2893.66 570.75C2897.54 576.5 2901.42 582.272 2905.34 588C2916.66 604.534 2928.52 620.746 2941.75 635.812C2948.02 642.947 2954.62 649.736 2961.47 656.312C2971.67 666.113 2982.81 676.491 2996.38 681.312C3005.74 684.643 3015.73 684.411 3025.53 684.25C3030.14 684.174 3034.74 684.178 3039.34 684.406C3034.74 684.16 3030.14 684.167 3025.53 684.219C3015.75 684.329 3005.83 684.422 2996.53 680.938C2982.52 675.688 2971.35 664.381 2961.25 653.75C2953.36 645.444 2946.02 636.681 2939.25 627.438C2927.92 611.967 2918.05 595.429 2908.56 578.781C2905.77 573.878 2902.97 569.001 2900.12 564.125C2894.93 555.202 2889.68 546.275 2885.25 536.938C2883.89 534.063 2882.6 531.118 2881.44 528.156C2879.98 524.446 2878.58 520.923 2874.72 519.094C2868.16 515.985 2861.58 521.165 2857.12 525.5C2856.35 526.259 2855.59 527.054 2854.84 527.844C2853.71 529.043 2852.59 530.26 2851.5 531.5C2850.41 532.732 2849.35 533.97 2848.28 535.219C2846.28 537.565 2844.26 539.926 2842.12 542.156C2840.61 539.494 2837.96 537.959 2834.91 537.875C2832.28 537.803 2829.66 538.857 2827.31 539.938C2823.67 541.618 2820.3 543.799 2816.75 545.656C2815.92 546.091 2815.05 546.468 2814.19 546.844C2813.24 545.106 2811.98 543.531 2810.62 542.094C2806.36 537.56 2801.1 533.974 2795.84 530.688C2793.64 529.307 2791.41 527.97 2789.12 526.719C2788.4 526.32 2787.67 525.947 2786.94 525.562C2786.82 525.499 2786.69 525.438 2786.56 525.375C2785.78 524.445 2785.22 523.289 2784.69 522.219C2783.93 520.716 2783.23 519.198 2782.56 517.656C2780.27 512.368 2778.22 506.986 2775.88 501.719C2775.39 500.627 2774.9 499.543 2774.38 498.469C2772.26 494.114 2768.97 487.269 2763.25 487.25C2762.03 487.246 2760.94 487.649 2759.78 488C2758.82 488.291 2757.86 488.56 2756.91 488.875C2756.63 488.965 2756.37 489.09 2756.09 489.156C2756 489.178 2755.94 489.128 2755.84 489.125C2755.47 489.113 2755.07 489.124 2754.69 489.125C2754.09 489.126 2753.5 489.194 2752.91 489.156C2752.11 489.105 2751.25 488.812 2750.47 488.656C2747.53 488.073 2744.68 487.315 2741.66 487.375C2739.45 487.419 2737.26 487.814 2735.16 488.469C2734.32 488.729 2733.54 489.082 2732.72 489.375C2731.56 489.789 2730.36 490.111 2729.19 490.5C2728.91 490.592 2728.63 490.712 2728.34 490.781C2727.82 490.908 2727.28 490.888 2726.75 490.938C2726.17 490.991 2725.61 491.119 2725.03 491.125C2723.82 491.138 2722.59 491.025 2721.38 490.969C2718.38 490.83 2715.44 490.673 2712.47 491.219C2709.81 491.706 2707.38 492.712 2704.88 493.688C2702.48 494.62 2700.06 495.478 2697.56 496.094C2695.8 496.529 2693.95 496.908 2692.12 496.781C2688.78 496.549 2687.51 494.008 2685.75 491.469C2684.52 489.693 2683.16 488.015 2681.5 486.625C2676.5 482.451 2669.67 481.479 2663.38 481.375C2660.29 481.324 2657.2 481.489 2654.12 481.625C2649.45 481.831 2644.8 482.068 2640.12 482.281C2627.17 482.871 2614.19 483.31 2601.22 483.188C2597.07 483.149 2592.93 483.03 2588.78 482.844C2586.62 482.747 2584.4 482.716 2582.25 482.438C2581.31 482.316 2580.42 482.048 2579.5 481.844Z" fill="#0d2852" stroke="none"/>
</g>
<g opacity="1">
<path d="M1877.59 1935.97C1871.81 1935.99 1866.07 1936.49 1860.31 1936.97C1854.55 1937.45 1848.77 1937.83 1843 1938.16C1842.83 1938.17 1842.71 1938.33 1842.72 1938.5C1842.73 1938.67 1842.89 1938.79 1843.06 1938.78C1854.93 1937.71 1866.65 1936.06 1878.59 1936.12C1885.21 1936.16 1892.08 1936.76 1898.41 1938.81C1901.89 1939.95 1905.2 1941.55 1908.28 1943.53C1912.33 1946.13 1915.94 1949.3 1919.62 1952.38C1922.93 1955.13 1926.31 1957.82 1929.91 1960.19C1937.41 1965.13 1945.76 1968.52 1954.16 1971.62C1960.13 1973.83 1966.11 1976.02 1972.16 1978.03C2005.2 1989.03 2039.54 1995.33 2073.31 2003.59C2077.71 2004.67 2082.11 2005.77 2086.53 2006.78C2088.65 2007.27 2090.76 2007.75 2092.91 2008.06C2096.25 2008.55 2099.63 2008.72 2102.97 2009.22C2105.1 2009.54 2107.26 2010.01 2109.19 2011C2111.14 2012 2112.88 2013.41 2114.5 2014.88C2116.7 2016.86 2118.71 2019.06 2120.62 2021.31C2125.99 2027.61 2130.69 2034.4 2135.53 2041.09C2138.12 2044.67 2140.72 2048.27 2143.53 2051.69C2145 2053.48 2146.57 2055.19 2148.09 2056.94C2150.05 2059.17 2151.95 2061.47 2154.12 2063.5C2156.29 2065.51 2158.67 2067.27 2161.03 2069.03C2164 2071.25 2167 2073.41 2170.06 2075.5C2201.48 2096.97 2237.3 2110.56 2272.72 2123.81C2317.88 2140.7 2363.95 2156.23 2412.06 2161.81C2419.03 2162.62 2426.05 2163.25 2433.06 2163.47C2439.03 2163.66 2444.97 2163.47 2450.94 2163.38C2457.01 2163.27 2463.19 2163.53 2469.12 2162C2478.23 2159.65 2485.5 2153.16 2493.16 2148.06C2496.24 2146.01 2499.52 2144.24 2502.78 2142.5C2506.78 2140.37 2510.83 2138.33 2514.91 2136.34C2548.67 2119.88 2583.61 2106.01 2618.94 2093.28C2583.89 2105.79 2549.19 2119.34 2515.25 2134.62C2510.78 2136.64 2506.33 2138.71 2501.94 2140.88C2498.56 2142.54 2495.19 2144.22 2491.97 2146.19C2484.89 2150.51 2478.17 2156.05 2470.06 2158.34C2464.49 2159.92 2458.59 2159.49 2452.88 2159.25C2447.86 2159.04 2442.86 2158.96 2437.84 2158.62C2418.59 2157.34 2399.59 2153.31 2380.94 2148.53C2348.07 2140.12 2316.26 2128.01 2284.72 2115.66C2246.9 2100.85 2208.16 2086.69 2174.47 2063.53C2172.06 2061.87 2169.7 2060.14 2167.34 2058.41C2165.66 2057.16 2163.93 2055.94 2162.38 2054.53C2160.33 2052.68 2158.57 2050.51 2156.72 2048.47C2154.92 2046.49 2153.1 2044.57 2151.41 2042.5C2147.78 2038.08 2144.4 2033.45 2140.94 2028.91C2136.28 2022.78 2131.56 2016.65 2126.16 2011.16C2122.76 2007.7 2119.03 2004.36 2114.69 2002.12C2110.83 2000.14 2106.54 1999.39 2102.25 1999.06C2099.25 1998.83 2096.24 1998.82 2093.25 1998.47C2091.06 1998.22 2088.89 1997.73 2086.72 1997.34C2081.38 1996.39 2076.09 1995.33 2070.75 1994.38C2034.8 1987.94 1998.32 1983.55 1963.38 1972.53C1952.12 1968.98 1940.63 1965.53 1930.53 1959.25C1920.01 1952.7 1911.51 1942.81 1899.53 1938.78C1892.51 1936.42 1884.95 1935.94 1877.59 1935.97Z" fill="#0d2852" stroke="none"/>
</g>
<g opacity="1">
<path d="M2752.78 1672.19C2741.85 1672.29 2731.01 1673.75 2720.31 1675.91C2711.33 1677.72 2702.41 1679.97 2693.62 1682.56C2687.52 1684.36 2681.5 1686.4 2675.41 1688.22C2672.26 1689.16 2669.13 1690.07 2665.94 1690.81C2659.96 1692.2 2653.84 1693.04 2647.91 1694.66C2642.83 1696.04 2637.88 1697.96 2633.06 1700.06C2621.56 1705.09 2610.62 1711.27 2599.81 1717.62C2588.51 1724.27 2577.38 1731.26 2565.41 1736.66C2554.66 1741.5 2543.28 1744.83 2532.38 1749.28C2523.51 1752.9 2514.65 1756.54 2505.72 1760C2491.31 1765.59 2476.84 1770.99 2462.53 1776.81C2453.14 1780.63 2443.87 1784.71 2434.62 1788.88C2433.15 1789.54 2431.62 1790.12 2430.12 1790.75C2427.51 1791.85 2424.91 1792.98 2422.31 1794.12C2421.97 1794.3 2421.83 1794.69 2422 1795.03C2422.17 1795.37 2422.6 1795.51 2422.94 1795.34C2426.81 1793.17 2430.67 1790.91 2434.69 1789C2440.16 1786.39 2445.83 1784.12 2451.47 1781.91C2463.55 1777.17 2475.83 1773.04 2488.25 1769.28C2497.59 1766.45 2507.02 1763.88 2516.44 1761.34C2523.11 1759.55 2529.77 1757.7 2536.5 1756.16C2547.52 1753.63 2558.79 1752.26 2569.75 1749.47C2593.66 1743.37 2615.68 1731.78 2638.91 1723.72C2643.51 1722.12 2648.19 1720.5 2652.97 1719.5C2657.39 1718.57 2661.88 1718.07 2666.34 1717.41C2670.97 1716.71 2675.56 1715.83 2680.09 1714.69C2687.17 1712.9 2694.12 1710.68 2701.16 1708.72C2706.25 1707.3 2711.39 1706.01 2716.53 1704.78C2727.67 1702.12 2738.96 1699.85 2750.41 1699.12C2757.65 1698.67 2764.95 1698.77 2772.12 1699.97C2774.87 1700.43 2777.72 1700.91 2780.31 1701.97C2784.66 1703.74 2788.56 1706.56 2792.22 1709.47C2799.32 1715.12 2805.62 1721.64 2812.09 1727.97C2831.65 1747.09 2849.46 1767.96 2869.53 1786.56C2883.82 1799.81 2899.6 1811.37 2916.84 1820.5C2927 1825.88 2937.74 1830.64 2948.88 1833.59C2956.08 1835.5 2963.5 1836.31 2970.91 1837C2977.72 1837.63 2984.53 1838.16 2991.31 1839.06C2986.38 1838.37 2981.45 1837.86 2976.5 1837.38C2967.88 1836.53 2959.22 1835.69 2950.84 1833.38C2940.38 1830.49 2930.37 1825.68 2921.06 1820.16C2904.81 1810.5 2890.2 1798.04 2878.12 1783.5C2864.65 1767.28 2853.48 1749.36 2841.34 1732.16C2835.93 1724.49 2830.26 1717.03 2824.38 1709.72C2818.17 1702.01 2811.71 1694.44 2804.16 1688C2799.41 1683.96 2794.23 1680.34 2788.47 1677.91C2784.24 1676.12 2779.71 1675 2775.22 1674.12C2767.82 1672.68 2760.31 1672.12 2752.78 1672.19Z" fill="#5e752e" stroke="none"/>
</g>
<g opacity="1">
<path d="M1549.19 1705.91C1543.33 1706 1537.51 1706.59 1531.72 1707.44C1526.2 1708.24 1520.7 1709.19 1515.25 1710.38C1499.56 1713.78 1484.25 1718.75 1469.47 1725C1459.05 1729.4 1448.87 1734.44 1439.16 1740.25C1413.24 1755.75 1390.2 1775.48 1364.66 1791.53C1358.15 1795.62 1351.51 1799.45 1344.62 1802.88C1333.04 1808.64 1321.02 1813.5 1309.19 1818.72C1296.72 1824.22 1284.57 1830.43 1272.31 1836.38C1260.62 1842.05 1248.69 1847.03 1236.06 1850.22C1221.48 1853.9 1206.5 1855.52 1191.56 1856.97C1188.08 1857.31 1184.58 1857.4 1181.22 1858.44C1178.31 1859.33 1175.45 1860.67 1172.41 1861.09C1170.79 1861.32 1169.08 1861.28 1167.62 1860.47C1165.14 1859.09 1163.98 1856.38 1163.41 1853.72C1162.54 1849.74 1162.71 1845.56 1161.47 1841.66C1160.65 1839.1 1159.13 1836.76 1157.62 1834.56C1155.24 1831.09 1152.55 1827.82 1150.09 1824.41C1152.82 1828.27 1155.86 1831.93 1158.38 1835.94C1159.51 1837.75 1160.62 1839.66 1161.25 1841.72C1162.54 1845.93 1162.12 1850.42 1163.12 1854.69C1163.72 1857.22 1164.98 1859.71 1167.28 1861.09C1171.51 1863.63 1177.33 1860.81 1181.59 1859.72C1184.41 1859 1187.23 1859.02 1190.12 1858.94C1193.71 1858.84 1197.32 1858.7 1200.91 1858.59C1218.24 1858.09 1235.58 1857.16 1252.62 1853.75C1265.34 1851.21 1277.76 1847.34 1290.16 1843.59C1299.39 1840.8 1308.66 1838.15 1317.97 1835.62C1331.01 1832.09 1344.05 1828.43 1356.62 1823.44C1364.11 1820.46 1371.35 1816.91 1378.41 1813.03C1402.38 1799.86 1423.81 1782.68 1446.59 1767.66C1463.9 1756.25 1482.37 1746.77 1501.41 1738.62C1510.76 1734.62 1520.29 1731.03 1529.94 1727.81C1536.24 1725.71 1542.58 1723.63 1549.09 1722.28C1559.48 1720.12 1570.08 1719.46 1580.62 1718.56C1594.34 1717.4 1608.04 1716.35 1621.78 1715.53C1637.57 1714.6 1653.4 1714.08 1669.22 1713.72C1676.44 1713.55 1683.68 1713.43 1690.91 1713.38C1694.06 1713.35 1697.22 1713.23 1700.38 1713.31C1704.44 1713.42 1708.5 1713.73 1712.56 1713.94C1712.94 1713.94 1713.28 1713.63 1713.28 1713.25C1713.28 1712.87 1712.94 1712.56 1712.56 1712.56C1708.5 1712.77 1704.44 1713.08 1700.38 1713.19C1696.77 1713.28 1693.14 1713.15 1689.53 1713.12C1681.85 1713.07 1674.18 1712.89 1666.5 1712.72C1644.8 1712.23 1623.12 1711.19 1601.47 1709.62C1593.29 1709.03 1585.13 1708.35 1576.97 1707.56C1567.74 1706.67 1558.48 1705.75 1549.19 1705.91Z" fill="#5e752e" stroke="none"/>
</g>
<g opacity="1">
<path d="M497.531 1637.47C490.943 1637.53 484.338 1637.51 477.75 1637.62C473.913 1637.69 470.086 1637.78 466.25 1637.91C463.281 1638 460.315 1638.18 457.344 1638.16C450.893 1638.1 444.373 1637.65 438.031 1639.12C434.831 1639.87 431.743 1641.09 428.781 1642.5C418.299 1647.49 410.045 1655.8 402.688 1664.59C394.246 1674.69 386.452 1685.69 375.688 1693.5C372.764 1695.62 369.697 1697.47 366.469 1699.09C344.05 1710.34 317.917 1707.59 293.719 1706.59C317.537 1707.69 342.859 1710.63 365.531 1701.41C368.945 1700.02 372.241 1698.36 375.406 1696.47C387.578 1689.2 396.862 1678.29 406.812 1668.41C415.831 1659.45 425.59 1651.56 438.219 1648.56C444.319 1647.12 450.814 1648.3 456.969 1648.69C460.514 1648.91 464.074 1648.91 467.625 1648.97C472.27 1649.04 476.918 1649.11 481.562 1649.22C486.884 1649.34 492.177 1649.53 497.5 1649.59C505.052 1649.68 512.618 1649.62 520.156 1650.16C526.497 1650.61 532.822 1651.56 539.062 1652.75C557.467 1656.27 575.349 1662.01 593.094 1667.94C608.124 1672.96 623.16 1677.95 638.406 1682.28C652.823 1686.38 667.366 1689.99 681.781 1694.09C693.817 1697.52 705.766 1701.27 717.5 1705.62C723.558 1707.87 729.547 1710.29 735.469 1712.88C738.423 1714.16 741.395 1715.44 744.25 1716.94C751.59 1720.8 757.75 1726.44 764.344 1731.38C764.487 1731.48 764.68 1731.42 764.781 1731.28C764.882 1731.14 764.831 1730.94 764.688 1730.84C761.872 1728.98 759.114 1727.05 756.406 1725.03C752.499 1722.11 748.67 1719.1 744.375 1716.75C740.111 1714.42 735.584 1712.47 731.156 1710.47C724.218 1707.34 717.214 1704.35 710.156 1701.5C689.079 1692.99 667.664 1685.35 646.438 1677.22C611.091 1663.68 576.564 1646.84 539.062 1640C532.115 1638.73 525.087 1637.86 518.031 1637.53C511.204 1637.22 504.362 1637.41 497.531 1637.47Z" fill="#0d2852" stroke="none"/>
</g>
<g opacity="1">
<path d="M656.562 2049.69C634.848 2057.64 613.146 2065.64 591.188 2072.91C572.546 2079.07 553.711 2084.58 535 2090.53C516.253 2096.49 498.221 2105.27 478.688 2108.5C467.998 2110.27 457.285 2110.06 446.5 2109.66C437.224 2109.31 427.938 2108.94 418.656 2109.34C410.589 2109.7 402.53 2110.35 394.469 2110.81C385.101 2111.34 375.69 2111.74 366.344 2110.66C343.211 2107.99 322.403 2096.74 302.094 2086.12C295.48 2082.67 288.857 2079.19 282.062 2076.09C280.136 2075.22 278.209 2074.4 276.25 2073.59C274.691 2072.95 273.138 2072.23 271.5 2071.81C267.759 2070.86 263.91 2071.32 260.125 2071.72C256.933 2072.05 253.706 2072.16 250.5 2071.97C250.118 2071.97 249.807 2072.27 249.812 2072.66C249.818 2073.04 250.118 2073.35 250.5 2073.34C253.108 2073.12 255.645 2072.57 258.219 2072.12C261.905 2071.48 265.889 2071.15 269.594 2071.84C272.187 2072.33 274.556 2073.5 276.906 2074.66C279.74 2076.05 282.551 2077.54 285.281 2079.12C295.719 2085.18 305.357 2092.42 314.875 2099.81C327.874 2109.91 340.931 2120.25 356.125 2126.88C365.263 2130.86 374.996 2133.22 384.875 2134.44C399.152 2136.19 413.534 2135.63 427.875 2136.19C440.006 2136.66 452.167 2137.73 464.312 2137.06C473.552 2136.56 482.715 2134.98 491.562 2132.25C507.122 2127.45 521.206 2119.08 535 2110.62C545.878 2103.96 556.867 2097.45 567.875 2091C583.552 2081.81 599.771 2073.51 616.344 2066.06C629.553 2060.13 643.032 2054.84 656.562 2049.69Z" fill="#5e752e" stroke="none"/>
</g>
</g>
</svg>
