<?xml version="1.0" encoding="UTF-8" standalone="no"?>
<!-- Created with Inkscape (http://www.inkscape.org/) -->
<svg xmlns:dc="http://purl.org/dc/elements/1.1/" xmlns:cc="http://creativecommons.org/ns#" xmlns:rdf="http://www.w3.org/1999/02/22-rdf-syntax-ns#" xmlns:svg="http://www.w3.org/2000/svg" xmlns="http://www.w3.org/2000/svg" xmlns:xlink="http://www.w3.org/1999/xlink" xmlns:sodipodi="http://sodipodi.sourceforge.net/DTD/sodipodi-0.dtd" xmlns:inkscape="http://www.inkscape.org/namespaces/inkscape" width="400" height="300" id="svg3322" sodipodi:version="0.32" inkscape:version="0.46" sodipodi:docname="piranha4.svg" inkscape:output_extension="org.inkscape.output.svg.inkscape" version="1.0" style="display: inline;">
  <defs id="defs3324">
    <linearGradient id="linearGradient4275">
      <stop id="stop4277" offset="0" style="stop-color: rgb(173, 173, 173); stop-opacity: 1;"/>
      <stop id="stop4279" offset="1" style="stop-color: rgb(112, 112, 112); stop-opacity: 1;"/>
    </linearGradient>
    <linearGradient id="linearGradient4269">
      <stop id="stop4271" offset="0" style="stop-color: rgb(210, 210, 210); stop-opacity: 1;"/>
      <stop id="stop4273" offset="1" style="stop-color: rgb(139, 139, 139); stop-opacity: 1;"/>
    </linearGradient>
    <linearGradient id="linearGradient4263">
      <stop id="stop4265" offset="0" style="stop-color: rgb(116, 116, 116); stop-opacity: 1;"/>
      <stop id="stop4267" offset="1" style="stop-color: rgb(210, 210, 210); stop-opacity: 1;"/>
    </linearGradient>
    <linearGradient id="linearGradient4207">
      <stop style="stop-color: rgb(173, 173, 173); stop-opacity: 1;" offset="0" id="stop4209"/>
      <stop style="stop-color: rgb(112, 112, 112); stop-opacity: 1;" offset="1" id="stop4211"/>
    </linearGradient>
    <linearGradient id="linearGradient4158">
      <stop id="stop4160" offset="0" style="stop-color: rgb(66, 66, 66); stop-opacity: 1;"/>
      <stop style="stop-color: rgb(109, 104, 77); stop-opacity: 1;" offset="0.3861883" id="stop4166"/>
      <stop style="stop-color: rgb(201, 189, 122); stop-opacity: 1;" offset="0.7845059" id="stop4162"/>
      <stop id="stop4164" offset="1" style="stop-color: rgb(255, 217, 0); stop-opacity: 1;"/>
    </linearGradient>
    <linearGradient id="linearGradient4000">
      <stop style="stop-color: rgb(255, 138, 0); stop-opacity: 1;" offset="0" id="stop4002"/>
      <stop style="stop-color: rgb(255, 237, 0); stop-opacity: 0.934959;" offset="1" id="stop4004"/>
    </linearGradient>
    <linearGradient id="linearGradient3984">
      <stop style="stop-color: rgb(66, 66, 66); stop-opacity: 1;" offset="0" id="stop3986"/>
      <stop id="stop4156" offset="0.5" style="stop-color: rgb(201, 189, 122); stop-opacity: 1;"/>
      <stop style="stop-color: rgb(255, 217, 0); stop-opacity: 1;" offset="1" id="stop3988"/>
    </linearGradient>
    <inkscape:perspective sodipodi:type="inkscape:persp3d" inkscape:vp_x="0 : 526.18109 : 1" inkscape:vp_y="0 : 1000 : 0" inkscape:vp_z="744.09448 : 526.18109 : 1" inkscape:persp3d-origin="372.04724 : 350.78739 : 1" id="perspective3330"/>
    <inkscape:perspective id="perspective3396" inkscape:persp3d-origin="372.04724 : 350.78739 : 1" inkscape:vp_z="744.09448 : 526.18109 : 1" inkscape:vp_y="0 : 1000 : 0" inkscape:vp_x="0 : 526.18109 : 1" sodipodi:type="inkscape:persp3d"/>
    <linearGradient inkscape:collect="always" xlink:href="#linearGradient3984" id="linearGradient3990" x1="327.2894" y1="303.31482" x2="347.49246" y2="480.61584" gradientUnits="userSpaceOnUse"/>
    <linearGradient inkscape:collect="always" xlink:href="#linearGradient4000" id="linearGradient4006" x1="355.33917" y1="553.06726" x2="348.63541" y2="438.759" gradientUnits="userSpaceOnUse" gradientTransform="translate(5.81581, 5.81581)"/>
    <linearGradient inkscape:collect="always" xlink:href="#linearGradient4263" id="linearGradient4154" gradientUnits="userSpaceOnUse" x1="347.49246" y1="340.69046" x2="321.22849" y2="448.29095" gradientTransform="translate(5.81581, 5.81581)"/>
    <linearGradient inkscape:collect="always" xlink:href="#linearGradient4269" id="linearGradient4213" x1="349.42023" y1="524.6062" x2="420.14627" y2="480.82062" gradientUnits="userSpaceOnUse" gradientTransform="translate(5.81581, 5.81581)"/>
    <linearGradient inkscape:collect="always" xlink:href="#linearGradient4269" id="linearGradient4229" x1="170.54094" y1="397.17786" x2="222.97087" y2="410.30981" gradientUnits="userSpaceOnUse" gradientTransform="translate(5.81581, 5.81581)"/>
    <linearGradient inkscape:collect="always" xlink:href="#linearGradient4269" id="linearGradient4253" x1="266.51361" y1="314.65079" x2="277.72897" y2="341.92493" gradientUnits="userSpaceOnUse" gradientTransform="translate(5.81581, 5.81581)"/>
    <linearGradient inkscape:collect="always" xlink:href="#linearGradient4000" id="linearGradient4261" x1="270.46121" y1="528.31201" x2="242.45477" y2="566.69775" gradientUnits="userSpaceOnUse" gradientTransform="translate(5.81581, 5.81581)"/>
  </defs>
  <sodipodi:namedview id="base" pagecolor="#ffffff" bordercolor="#666666" borderopacity="1.0" inkscape:pageopacity="0.0" inkscape:pageshadow="2" inkscape:zoom="0.98994949" inkscape:cx="386.10822" inkscape:cy="268.82135" inkscape:document-units="px" inkscape:current-layer="layer13" showgrid="false" showguides="true" inkscape:guide-bbox="true" inkscape:window-width="1024" inkscape:window-height="702" inkscape:window-x="0" inkscape:window-y="32" borderlayer="true"/>
  <metadata id="metadata3327">
    <rdf:RDF>
      <cc:Work rdf:about="">
        <dc:format>image/svg+xml</dc:format>
        <dc:type rdf:resource="http://purl.org/dc/dcmitype/StillImage"/>
      </cc:Work>
    </rdf:RDF>
  </metadata>
  <g inkscape:groupmode="layer" id="layer13" inkscape:label="colo 0" style="display: inline;" transform="translate(-138.216, -299.775)">
    <path sodipodi:nodetypes="cccc" id="path4171" d="M 247.95868,506.74943 C 246.62898,515.42806 227.70371,530.1274 216.17296,534.96371 C 245.23696,582.77997 275.33662,587.76176 311.17296,592.82086 C 321.20441,581.49561 324.43538,575.17775 323.31582,567.82086" style="overflow: visible; marker: none; opacity: 1; fill: url(#linearGradient4261) rgb(0, 0, 0); fill-opacity: 1; fill-rule: nonzero; stroke: none; stroke-width: 4; stroke-linecap: round; stroke-linejoin: round; stroke-miterlimit: 4; stroke-dasharray: none; stroke-dashoffset: 0pt; stroke-opacity: 1; visibility: visible; display: inline;"/>
    <path sodipodi:nodetypes="cssssc" id="path4173" d="M 262.95868,359.60657 L 240.31898,333.34452 C 237.19971,329.72617 235.34992,326.04209 238.93877,324.17792 C 249.13881,318.87969 273.29889,309.64066 284.9279,307.86058 C 289.32068,307.18816 295.48392,307.81042 299.67102,309.29932 C 306.53755,311.74101 319.91027,322.7342 319.91027,322.7342" style="overflow: visible; marker: none; opacity: 1; fill: url(#linearGradient4253) rgb(0, 0, 0); fill-opacity: 1; fill-rule: nonzero; stroke: none; stroke-width: 4; stroke-linecap: round; stroke-linejoin: round; stroke-miterlimit: 4; stroke-dasharray: none; stroke-dashoffset: 0pt; stroke-opacity: 1; visibility: visible; display: inline;"/>
    <path sodipodi:nodetypes="cssssssc" id="path4175" d="M 237.89837,387.18417 L 192.94658,316.97857 C 190.0875,312.51327 185.29522,315.84472 183.35013,317.98872 C 170.06347,332.63414 179.34332,364.43939 182.84505,383.90118 C 184.55633,393.41207 178.93332,401.45086 174.76383,406.88215 C 159.86485,426.28998 141.06567,459.97768 147.23718,483.65374 C 148.02278,486.66756 150.40991,493.47161 155.06586,490.47227 L 222.49354,447.03571" style="overflow: visible; marker: none; opacity: 1; fill: url(#linearGradient4229) rgb(0, 0, 0); fill-opacity: 1; fill-rule: nonzero; stroke: none; stroke-width: 4; stroke-linecap: round; stroke-linejoin: round; stroke-miterlimit: 4; stroke-dasharray: none; stroke-dashoffset: 0pt; stroke-opacity: 1; visibility: visible; display: inline;"/>
  </g>
  <g inkscape:groupmode="layer" id="layer10" inkscape:label="colo 1" style="display: inline;" transform="translate(-138.216, -299.775)">
    <path sodipodi:nodetypes="cssscs" id="path3993" d="M 501.54818,426.83266 C 426.57823,248.06289 294.34161,309.87157 235.48811,390.22207 C 222.71429,407.66168 219.06449,434.05415 223.76114,451.01652 C 244.16621,524.71122 303.76132,572.24562 362.39967,575.32509 C 480.6876,581.53713 547.78105,467.03015 514.9327,414.71083 L 441.94918,485.42151" style="overflow: visible; marker: none; opacity: 1; fill: url(#linearGradient4154) rgb(0, 0, 0); fill-opacity: 1; fill-rule: nonzero; stroke: none; stroke-width: 4; stroke-linecap: round; stroke-linejoin: round; stroke-miterlimit: 4; stroke-dasharray: none; stroke-dashoffset: 0pt; stroke-opacity: 1; visibility: visible; display: inline;"/>
  </g>
  <g inkscape:groupmode="layer" id="layer11" inkscape:label="colo 2" style="display: inline;" transform="translate(-138.216, -299.775)">
    <path style="overflow: visible; marker: none; opacity: 1; fill: url(#linearGradient4006) rgb(0, 0, 0); fill-opacity: 1; fill-rule: nonzero; stroke: none; stroke-width: 4; stroke-linecap: round; stroke-linejoin: round; stroke-miterlimit: 4; stroke-dasharray: none; stroke-dashoffset: 0pt; stroke-opacity: 1; visibility: visible; display: inline;" d="M 441.94918,485.42151 C 436.93854,490.27611 438.71262,487.0734 422.9465,473.23259 C 407.53166,459.70017 370.25105,469.07618 327.27835,468.84693 C 279.87267,468.59403 218.23261,428.19678 223.76114,451.01652 C 240.38318,519.62618 303.98811,572.07553 362.39967,575.32509 C 480.66773,581.9046 547.78105,467.03015 514.9327,414.71083 L 441.94918,485.42151 z" id="path3997" sodipodi:nodetypes="csssscs"/>
  </g>
  <g inkscape:groupmode="layer" id="layer12" inkscape:label="colo 3" style="display: inline;" transform="translate(-138.216, -299.775)">
    <path style="overflow: visible; marker: none; opacity: 1; fill: rgb(176, 4, 0); fill-opacity: 1; fill-rule: nonzero; stroke: none; stroke-width: 4; stroke-linecap: round; stroke-linejoin: round; stroke-miterlimit: 4; stroke-dasharray: none; stroke-dashoffset: 0pt; stroke-opacity: 1; visibility: visible; display: inline;" d="M 422.33884,567.49076 C 419.60819,559.44258 424.32714,545.3966 431.3698,540.63945 C 440.35427,534.57065 456.79781,537.84854 464.62837,530.34966 C 484.82022,511.01308 474.9527,475.0812 489.6545,457.17602 C 496.84082,448.42387 508.79316,437.35963 522.35335,434.42937 C 522.77437,455.77763 527.56119,462.38033 510.96634,494.78898 C 500.17328,515.86712 484.95659,528.38129 475.15396,537.8077 C 467.74455,544.93274 434.3754,563.77513 422.33884,567.49076 z" id="path4169" sodipodi:nodetypes="cssscssc"/>
    <path sodipodi:nodetypes="cccccsccc" id="path4196" d="M 441.46205,485.36023 C 440.4519,484.35008 433.86796,456.63216 433.86796,456.63216 L 454.65531,471.69254 L 453.3134,445.26795 L 472.00122,456.12708 C 472.00122,456.12708 468.97076,434.66134 469.98092,435.16642 C 470.99107,435.6715 484.89336,441.80638 484.89336,441.80638 L 486.34731,424.63379 L 499.27534,430.11566" style="overflow: visible; marker: none; opacity: 1; fill: rgb(255, 255, 255); fill-opacity: 1; fill-rule: nonzero; stroke: rgb(0, 0, 0); stroke-width: 4; stroke-linecap: round; stroke-linejoin: round; stroke-miterlimit: 4; stroke-dasharray: none; stroke-dashoffset: 0pt; stroke-opacity: 1; visibility: visible; display: inline;"/>
  </g>
  <g inkscape:groupmode="layer" id="layer9" inkscape:label="noir" style="display: inline;" transform="translate(-138.216, -299.775)">
    <path style="overflow: visible; marker: none; opacity: 1; fill: none; fill-opacity: 1; fill-rule: nonzero; stroke: rgb(0, 0, 0); stroke-width: 4; stroke-linecap: round; stroke-linejoin: round; stroke-miterlimit: 4; stroke-dasharray: none; stroke-dashoffset: 0pt; stroke-opacity: 1; visibility: visible; display: inline;" d="M 222.86828,447.98081 C 242.10474,526.34997 303.66241,572.64127 362.39967,575.32509 C 480.72715,580.7317 547.78105,467.03015 514.9327,414.71083 L 441.94918,485.42151 M 501.54818,426.83266 C 427.64239,250.60042 298.08412,308.16537 238.03827,386.81233" id="path3403" sodipodi:nodetypes="cscscs"/>
    <path style="overflow: visible; marker: none; opacity: 1; fill: none; fill-opacity: 1; fill-rule: nonzero; stroke: rgb(0, 0, 0); stroke-width: 4; stroke-linecap: round; stroke-linejoin: round; stroke-miterlimit: 4; stroke-dasharray: none; stroke-dashoffset: 0pt; stroke-opacity: 1; visibility: visible; display: inline;" d="M 247.95868,506.74943 C 246.62898,515.42806 227.70371,530.1274 216.17296,534.96371 C 245.23696,582.77997 275.33662,587.76176 311.17296,592.82086 C 321.20441,581.49561 324.43538,575.17775 323.31582,567.82086" id="path3914" sodipodi:nodetypes="cccc"/>
    <path style="overflow: visible; marker: none; opacity: 1; fill: none; fill-opacity: 1; fill-rule: nonzero; stroke: rgb(0, 0, 0); stroke-width: 4; stroke-linecap: round; stroke-linejoin: round; stroke-miterlimit: 4; stroke-dasharray: none; stroke-dashoffset: 0pt; stroke-opacity: 1; visibility: visible; display: inline;" d="M 262.42297,358.71371 L 240.31898,333.34452 C 237.1807,329.74265 235.34992,326.04209 238.93877,324.17792 C 249.13881,318.87969 273.29889,309.64066 284.9279,307.86058 C 289.32068,307.18816 295.48392,307.81042 299.67102,309.29932 C 306.53755,311.74101 318.64758,321.72405 318.64758,321.72405" id="path3916" sodipodi:nodetypes="cssssc"/>
    <path style="overflow: visible; marker: none; opacity: 1; fill: none; fill-opacity: 1; fill-rule: nonzero; stroke: rgb(0, 0, 0); stroke-width: 4; stroke-linecap: round; stroke-linejoin: round; stroke-miterlimit: 4; stroke-dasharray: none; stroke-dashoffset: 0pt; stroke-opacity: 1; visibility: visible; display: inline;" d="M 237.89837,387.18417 L 192.94658,316.97857 C 190.0875,312.51327 185.29522,315.84472 183.35013,317.98872 C 170.06347,332.63414 179.34332,364.43939 182.84505,383.90118 C 184.55633,393.41207 178.93332,401.45086 174.76383,406.88215 C 159.86485,426.28998 141.06567,459.97768 147.23718,483.65374 C 148.02278,486.66756 150.40991,493.47161 155.06586,490.47227 L 222.49354,447.03571" id="path3918" sodipodi:nodetypes="cssssssc"/>
    <path sodipodi:type="arc" style="overflow: visible; marker: none; opacity: 1; fill: rgb(255, 255, 255); fill-opacity: 1; fill-rule: nonzero; stroke: rgb(0, 0, 0); stroke-width: 3.40344; stroke-linecap: round; stroke-linejoin: round; stroke-miterlimit: 4; stroke-dasharray: none; stroke-dashoffset: 0pt; stroke-opacity: 1; visibility: visible; display: inline;" id="path3920" sodipodi:cx="441.18411" sodipodi:cy="395.76303" sodipodi:rx="17.172594" sodipodi:ry="14.89975" d="M 458.35671,395.76303 A 17.172594,14.89975 0 1 1 458.34921,395.3229" sodipodi:start="2.1751583e-19" sodipodi:end="6.2536415" sodipodi:open="true" transform="matrix(0.432529, -0.944347, 1.13147, 0.723159, -188.837, 533.146)"/>
    <path sodipodi:type="arc" style="overflow: visible; marker: none; opacity: 1; fill: rgb(0, 0, 0); fill-opacity: 1; fill-rule: nonzero; stroke: rgb(0, 0, 0); stroke-width: 4; stroke-linecap: round; stroke-linejoin: round; stroke-miterlimit: 4; stroke-dasharray: none; stroke-dashoffset: 0pt; stroke-opacity: 1; visibility: visible; display: inline;" id="path3922" sodipodi:cx="444.34085" sodipodi:cy="405.35947" sodipodi:rx="8.9651041" sodipodi:ry="9.8489876" d="M 453.30595,405.35947 A 8.9651041,9.8489876 0 1 1 453.30204,405.06853" sodipodi:start="2.1751583e-19" sodipodi:end="6.2536415" sodipodi:open="true" transform="translate(4.80566, 3.79551)"/>
    <path style="overflow: visible; marker: none; opacity: 1; fill: none; fill-opacity: 1; fill-rule: nonzero; stroke: rgb(0, 0, 0); stroke-width: 4; stroke-linecap: round; stroke-linejoin: round; stroke-miterlimit: 4; stroke-dasharray: none; stroke-dashoffset: 0pt; stroke-opacity: 1; visibility: visible; display: inline;" d="M 441.46205,485.36023 C 440.4519,484.35008 433.86796,456.63216 433.86796,456.63216 L 454.65531,471.69254 L 453.3134,445.26795 L 472.00122,456.12708 C 472.00122,456.12708 468.97076,434.66134 469.98092,435.16642 C 470.99107,435.6715 484.89336,441.80638 484.89336,441.80638 L 486.34731,424.63379 L 499.27534,430.11566" id="path3924" sodipodi:nodetypes="cccccsccc"/>
    <path style="overflow: visible; marker: none; opacity: 1; fill: url(#linearGradient4213) rgb(0, 0, 0); fill-opacity: 1; fill-rule: nonzero; stroke: rgb(0, 0, 0); stroke-width: 4; stroke-linecap: round; stroke-linejoin: round; stroke-miterlimit: 4; stroke-dasharray: none; stroke-dashoffset: 0pt; stroke-opacity: 1; visibility: visible; display: inline;" d="M 411.88725,475.678 C 393.54154,488.60309 352.20085,480.64176 349.74439,489.96372 C 343.7415,512.74393 384.98274,543.17352 409.74439,520.32086 C 417.53962,513.1266 425.60117,498.25182 423.67296,487.82086 C 422.75017,482.82885 416.0373,472.75417 411.88725,475.678 z" id="path3926" sodipodi:nodetypes="cssss"/>
    <path style="overflow: visible; marker: none; opacity: 1; fill: none; fill-opacity: 1; fill-rule: nonzero; stroke: rgb(0, 0, 0); stroke-width: 4; stroke-linecap: round; stroke-linejoin: round; stroke-miterlimit: 4; stroke-dasharray: none; stroke-dashoffset: 0pt; stroke-opacity: 1; visibility: visible; display: inline;" d="M 354.74439,509.96372 L 389.38725,491.74943" id="path3928"/>
    <path style="overflow: visible; marker: none; opacity: 1; fill: none; fill-opacity: 1; fill-rule: nonzero; stroke: rgb(0, 0, 0); stroke-width: 4; stroke-linecap: round; stroke-linejoin: round; stroke-miterlimit: 4; stroke-dasharray: none; stroke-dashoffset: 0pt; stroke-opacity: 1; visibility: visible; display: inline;" d="M 366.17296,519.60657 L 393.31582,498.53514" id="path3930"/>
    <path style="overflow: visible; marker: none; opacity: 1; fill: none; fill-opacity: 1; fill-rule: nonzero; stroke: rgb(0, 0, 0); stroke-width: 4; stroke-linecap: round; stroke-linejoin: round; stroke-miterlimit: 4; stroke-dasharray: none; stroke-dashoffset: 0pt; stroke-opacity: 1; visibility: visible; display: inline;" d="M 381.88725,525.678 L 399.38725,506.03514" id="path3932"/>
  </g>
</svg>