<?xml version="1.0" encoding="UTF-8" standalone="no"?>
<!-- Created with Inkscape (http://www.inkscape.org/) -->
<svg
   xmlns:dc="http://purl.org/dc/elements/1.1/"
   xmlns:cc="http://creativecommons.org/ns#"
   xmlns:rdf="http://www.w3.org/1999/02/22-rdf-syntax-ns#"
   xmlns:svg="http://www.w3.org/2000/svg"
   xmlns="http://www.w3.org/2000/svg"
   xmlns:sodipodi="http://sodipodi.sourceforge.net/DTD/sodipodi-0.dtd"
   xmlns:inkscape="http://www.inkscape.org/namespaces/inkscape"
   width="358.75323"
   height="128.06844"
   id="svg2"
   sodipodi:version="0.32"
   inkscape:version="0.46"
   sodipodi:docname="Shortfin_mako.svg"
   inkscape:output_extension="org.inkscape.output.svg.inkscape"
   version="1.0">
  <defs
     id="defs4">
    <inkscape:perspective
       sodipodi:type="inkscape:persp3d"
       inkscape:vp_x="0 : 526.18109 : 1"
       inkscape:vp_y="0 : 1000 : 0"
       inkscape:vp_z="744.09448 : 526.18109 : 1"
       inkscape:persp3d-origin="372.04724 : 350.78739 : 1"
       id="perspective10" />
    <inkscape:perspective
       id="perspective2447"
       inkscape:persp3d-origin="372.04724 : 350.78739 : 1"
       inkscape:vp_z="744.09448 : 526.18109 : 1"
       inkscape:vp_y="0 : 1000 : 0"
       inkscape:vp_x="0 : 526.18109 : 1"
       sodipodi:type="inkscape:persp3d" />
  </defs>
  <sodipodi:namedview
     id="base"
     pagecolor="#ffffff"
     bordercolor="#666666"
     borderopacity="1.0"
     gridtolerance="10000"
     guidetolerance="10"
     objecttolerance="10"
     inkscape:pageopacity="0.0"
     inkscape:pageshadow="2"
     inkscape:zoom="2.8284271"
     inkscape:cx="165.5467"
     inkscape:cy="36.869549"
     inkscape:document-units="px"
     inkscape:current-layer="layer1"
     showgrid="false"
     inkscape:object-paths="true"
     inkscape:object-nodes="true"
     inkscape:window-width="1287"
     inkscape:window-height="719"
     inkscape:window-x="146"
     inkscape:window-y="97" />
  <metadata
     id="metadata7">
    <rdf:RDF>
      <cc:Work
         rdf:about="">
        <dc:format>image/svg+xml</dc:format>
        <dc:type
           rdf:resource="http://purl.org/dc/dcmitype/StillImage" />
      </cc:Work>
    </rdf:RDF>
  </metadata>
  <g
     inkscape:label="Layer 1"
     inkscape:groupmode="layer"
     id="layer1"
     transform="translate(-185.64489,-343.34356)">
    <path
       style="fill:#808080;fill-opacity:1;fill-rule:evenodd;stroke:#000000;stroke-width:1.61199999;stroke-linecap:round;stroke-linejoin:miter;stroke-miterlimit:4;stroke-dasharray:none;stroke-opacity:1"
       d="M 276.42857,379.32647 C 276.42857,379.32647 313.21429,375.3979 317.14286,372.71932 C 321.07143,370.04075 332.14286,355.3979 335.71429,352.00504 C 339.28572,348.61218 345.52709,344.36515 348.56066,344.15328 C 351.06605,343.9783 350.92662,350.008 350.18755,354.29416 C 349.41889,358.75189 347.85714,366.29075 348.75,368.96932 C 349.64286,371.6479 352.14286,375.93361 355,376.82647 C 357.85714,377.71932 380.17857,379.68361 385.35714,380.21932 C 390.53572,380.75504 432.32143,388.61218 435.89286,388.07647 C 439.46429,387.54075 443.75,384.32647 445,385.04075 C 446.25,385.75504 445.89286,389.1479 445.89286,389.1479 L 441.78572,389.68361 C 441.78572,389.68361 454.28572,391.82647 457.67857,392.36218 C 461.07143,392.8979 473.03572,395.04075 475.71429,394.68361 C 478.39286,394.32647 488.03572,385.3979 495.53572,380.3979 C 510.46034,370.44815 524.23036,365.81017 527.92355,364.84424 C 535.38586,362.89251 543.22685,362.91584 543.5822,365.58006 C 543.74914,366.83166 541.78572,368.43361 539.64286,369.68361 C 537.5,370.93361 518.30837,388.71855 509.07305,397.79111 C 502.51512,404.23346 507.32143,418.43361 509.28572,423.61218 C 511.25,428.79075 518.21429,442.18361 516.07143,443.25504 C 504.87392,442.81438 495.40332,427.034 492.81228,425.35123 C 488.34799,418.56551 480,405.57647 477.67857,404.50504 C 475.35714,403.43361 470.17857,402.36218 461.78572,404.50504 C 453.39286,406.6479 446.60714,407.36218 446.60714,407.36218 L 449.82143,408.07647 C 449.82143,408.07647 449.64286,412.54075 448.03572,412.71932 C 446.42857,412.8979 442.67857,408.25504 437.67857,408.61218 C 432.67857,408.96932 415.71429,412.8979 413.57143,413.07647 C 411.42857,413.25504 403.21429,415.04075 399.10714,418.61218 C 395,422.18361 393.92857,427.18361 392.14286,427.36218 C 390.35714,427.54075 385.53572,420.21932 385.53572,420.21932 C 385.53572,420.21932 384.28572,417.18361 377.14286,418.25504 C 370,419.32647 356.07143,422.8979 345.35714,423.43361 C 334.64286,423.96932 312.32143,423.61218 312.32143,423.61218"
       id="path2455"
       sodipodi:nodetypes="cssszsssssccssssssssccssccssssscssc" />
    <path
       style="fill:#000000;fill-opacity:1;fill-rule:nonzero;stroke:none;stroke-width:1pt;stroke-linecap:butt;stroke-linejoin:miter;stroke-opacity:1"
       id="path2505"
       d="M 260.93395,392.20053 C 260.78705,392.45615 260.63749,392.71151 260.53068,392.98684 C 260.36548,393.38021 260.15701,393.75599 259.96461,394.13727 C 259.73535,394.60228 259.52177,395.07478 259.30544,395.54592 C 259.06644,396.07365 258.85109,396.61011 258.65939,397.15667 C 258.44583,397.73147 258.27963,398.32206 258.11349,398.91186 C 257.90332,399.53864 257.74441,400.18414 257.60394,400.83023 C 257.45641,401.4395 257.33965,402.05493 257.22638,402.67128 C 257.14178,403.28445 257.00378,403.88367 256.9207,404.49631 C 256.847,405.10129 256.80807,405.70949 256.79603,406.31862 C 256.78449,406.94543 256.79086,407.57235 256.80946,408.19892 C 256.81997,408.84061 256.86021,409.48113 256.90447,410.1212 C 256.96282,410.73802 256.99822,411.35609 257.10406,411.96715 C 257.19934,412.57066 257.30349,413.17278 257.41694,413.77312 C 257.46801,414.40032 257.72678,414.98313 257.79517,415.60279 C 257.97487,415.97534 257.99462,416.38051 258.12635,416.76511 L 257.6454,417.33032 C 257.51603,416.95841 257.31271,416.62492 257.25905,416.22521 C 256.97738,415.68224 256.94035,415.04571 256.81951,414.45233 C 256.72647,413.83929 256.62751,413.22721 256.53333,412.61432 C 256.4475,412.00531 256.35756,411.39696 256.31034,410.78321 C 256.26623,410.13789 256.23244,409.49276 256.22296,408.84585 C 256.2183,408.20189 256.24193,407.55797 256.2508,406.91403 C 256.27714,406.3014 256.3212,405.689 256.37656,405.07838 C 256.45656,404.48638 256.4933,403.89333 256.62534,403.30827 C 256.73997,402.67892 256.87346,402.0532 257.02918,401.43264 C 257.19054,400.81888 257.31607,400.19731 257.4685,399.58144 C 257.64911,398.98378 257.81854,398.38225 258.03657,397.79668 C 258.22564,397.24952 258.42987,396.70748 258.67448,396.18232 C 258.89537,395.69581 259.13774,395.22033 259.3649,394.73687 C 259.58198,394.31659 259.80145,393.89671 260.03263,393.48423 C 260.20304,393.20163 260.35016,392.9062 260.51197,392.61849 L 260.93395,392.20053 z" />
    <path
       style="fill:#000000;fill-opacity:1;fill-rule:nonzero;stroke:none;stroke-width:1pt;stroke-linecap:butt;stroke-linejoin:miter;stroke-opacity:1"
       id="path2507"
       d="M 269.23863,394.39344 C 269.09439,394.62621 268.93091,394.8459 268.78178,395.07571 C 268.51227,395.43398 268.29452,395.82612 268.06254,396.20863 C 267.79187,396.63085 267.56641,397.07967 267.35051,397.53166 C 267.14071,398.01122 266.94262,398.4956 266.75727,398.98518 C 266.58965,399.50183 266.44137,400.02296 266.29903,400.54727 C 266.16919,401.15098 265.97398,401.72986 265.85756,402.33562 C 265.69299,402.93595 265.58517,403.54416 265.50258,404.1609 C 265.38965,404.77489 265.2916,405.39131 265.21683,406.01112 C 265.14689,406.59138 265.13184,407.17599 265.09661,407.75899 C 265.10343,408.32714 265.05405,408.88961 265.05317,409.45717 C 265.061,410.00138 265.08705,410.54438 265.09217,411.08884 C 265.10542,411.61426 265.15993,412.1369 265.20047,412.6606 C 265.24583,413.20596 265.32586,413.74739 265.40177,414.28914 C 265.51221,414.84103 265.73253,415.36391 265.75607,415.92777 C 265.89409,416.18848 265.87963,416.48072 265.94054,416.75604 C 265.99335,416.99476 266.14785,417.24391 266.25152,417.46373 C 266.45251,417.82322 266.62473,418.19381 266.79796,418.56827 L 266.41449,419.02838 C 266.23819,418.65025 266.05081,418.279 265.89495,417.89203 C 265.7874,417.66333 265.70439,417.39692 265.58098,417.17855 C 265.54211,417.10978 265.47001,417.06281 265.43451,416.99223 C 265.41531,416.95405 265.29685,416.50808 265.28696,416.47154 C 264.99662,416.02959 264.96537,415.46198 264.81026,414.96291 C 264.69402,414.44076 264.60188,413.91462 264.55505,413.38104 C 264.51315,412.8428 264.50017,412.30506 264.48173,411.76563 C 264.43759,411.22043 264.41469,410.67718 264.44064,410.1301 C 264.44164,409.56789 264.38366,409.00678 264.46307,408.44687 C 264.49926,407.8471 264.55618,407.2495 264.61805,406.65184 C 264.70868,406.03318 264.78781,405.41257 264.90152,404.79756 C 265.04476,404.17765 265.19577,403.56059 265.29144,402.93174 C 265.43206,402.34388 265.51995,401.75179 265.6995,401.17238 C 265.84831,400.61248 266.03753,400.06414 266.23637,399.52021 C 266.39141,399.03729 266.56429,398.56044 266.78323,398.1022 C 266.99088,397.66079 267.20861,397.22346 267.4581,396.80398 C 267.69053,396.42382 267.9022,396.03033 268.16723,395.67102 C 268.36046,395.42424 268.54902,395.17417 268.72081,394.91205 L 269.23863,394.39344 z" />
    <path
       style="fill:#000000;fill-opacity:1;fill-rule:nonzero;stroke:none;stroke-width:1pt;stroke-linecap:butt;stroke-linejoin:miter;stroke-opacity:1"
       id="path2509"
       d="M 275.52324,395.99697 C 275.35834,396.19458 275.19467,396.39233 275.89393,395.50653 C 275.91729,395.47694 275.85211,395.5693 275.83279,395.60167 C 275.76118,395.72167 275.69894,395.84803 275.63193,395.97061 C 275.46032,396.30303 275.30493,396.64327 275.14715,396.98237 C 274.9514,397.40725 274.78107,397.8438 274.63413,398.28784 C 274.47424,398.76124 274.33728,399.24237 274.20069,399.72298 C 274.07352,400.21081 273.96433,400.70197 273.84349,401.19167 C 273.75267,401.69781 273.64018,402.20061 273.53507,402.70426 C 273.42293,403.22392 273.33474,403.74814 273.24399,404.27179 C 273.12003,404.81261 273.06362,405.36067 272.96847,405.90622 C 272.86919,406.46275 272.81362,407.02069 272.73666,407.57974 C 272.63202,408.18721 272.54738,408.80095 272.51206,409.41644 C 272.46966,410.04875 272.4566,410.68118 272.45841,411.31469 C 272.45376,411.92599 272.49945,412.53587 272.5282,413.14604 C 272.54717,413.72914 272.60508,414.30965 272.68397,414.88738 C 272.76545,415.17871 272.72901,415.47258 272.74323,415.76663 C 272.75659,416.04304 272.79966,416.32042 272.80939,416.60008 C 272.80481,417.14081 272.80346,417.68151 272.80386,418.22226 C 272.80452,418.30836 272.80518,418.39445 272.80584,418.48054 L 272.37634,418.95332 C 272.3756,418.86652 272.37487,418.77973 272.37413,418.69293 C 272.3924,418.15528 272.40691,417.61805 272.3752,417.0806 C 272.36584,416.81241 272.39181,416.50534 272.32173,416.24358 C 272.3021,416.17027 272.24793,416.10932 272.22794,416.0361 C 272.20403,415.94847 272.17078,415.55937 272.16261,415.47398 C 272.10524,414.8951 272.00598,414.32012 271.99511,413.73739 C 271.96696,413.12235 271.93986,412.50673 271.93427,411.89106 C 271.93232,411.2609 271.93428,410.63047 271.97391,410.00127 C 272.00531,409.42403 272.01739,408.8473 272.08939,408.27203 C 272.16658,407.69808 272.29537,407.13674 272.35606,406.56006 C 272.41775,406.01781 272.54459,405.48854 272.61073,404.94649 C 272.6828,404.42286 272.78131,403.9034 272.88866,403.38593 C 272.99711,402.86705 273.07477,402.33989 273.23131,401.83272 C 273.35507,401.32714 273.49105,400.82526 273.6245,400.32223 C 273.7628,399.82895 273.92132,399.34231 274.08087,398.85562 C 274.24582,398.41976 274.41699,397.98636 274.58496,397.5517 C 274.72051,397.20959 274.88097,396.87779 275.04924,396.55067 C 275.28726,396.10155 275.55358,395.66473 275.90915,395.29501 L 275.52324,395.99697 z" />
    <path
       style="fill:#000000;fill-opacity:1;fill-rule:nonzero;stroke:none;stroke-width:1pt;stroke-linecap:butt;stroke-linejoin:miter;stroke-opacity:1"
       id="path2511"
       d="M 281.73976,396.64211 C 281.60003,396.83753 281.49828,397.05632 281.38502,397.26745 C 281.18559,397.64102 281.01526,398.02894 280.83151,398.41024 C 280.59933,398.91651 280.39632,399.43595 280.19908,399.9567 C 279.95461,400.55468 279.77166,401.17448 279.58641,401.79255 C 279.41884,402.39135 279.25295,402.99023 279.09737,403.59245 C 278.88383,404.23418 278.76211,404.9008 278.62901,405.56244 C 278.51637,406.20691 278.42792,406.85488 278.33277,407.50204 C 278.2478,408.10799 278.18808,408.71667 278.12107,409.32461 C 278.05379,409.92696 278.01338,410.53186 277.97646,411.13674 C 277.94954,411.76083 277.91254,412.38252 277.85863,413.00506 C 277.84955,413.11122 277.84048,413.21738 277.8314,413.32354 L 277.08807,414.12674 C 277.09692,414.02068 277.10577,413.91461 277.11462,413.80854 C 277.17083,413.1697 277.22998,412.53105 277.27911,411.89168 C 277.33386,411.27323 277.39024,410.65515 277.45756,410.03792 C 277.52622,409.41358 277.61345,408.79096 277.70704,408.16988 C 277.8062,407.49465 277.92667,406.82242 278.06836,406.15481 C 278.1961,405.50413 278.37192,404.86497 278.50186,404.21485 C 278.66063,403.58816 278.85214,402.97003 279.04551,402.3533 C 279.2199,401.77103 279.38172,401.1852 279.56665,400.60613 C 279.74099,400.06745 279.96695,399.54987 280.2074,399.03758 C 280.39532,398.64028 280.60535,398.25409 280.79414,397.85722 C 280.91569,397.61722 281.06134,397.38965 281.20616,397.16339 L 281.73976,396.64211 z" />
    <path
       style="fill:#000000;fill-opacity:1;fill-rule:nonzero;stroke:none;stroke-width:1pt;stroke-linecap:butt;stroke-linejoin:miter;stroke-opacity:1"
       id="path2521"
       d="M 393.15906,413.04067 C 393.29806,413.05896 393.43775,413.07062 393.57702,413.08704 C 393.81559,413.11108 394.05387,413.13749 394.29221,413.16377 C 394.59636,413.19238 394.89955,413.2298 395.20335,413.26172 C 395.60917,413.3037 396.01391,413.35566 396.41957,413.39953 C 396.8915,413.42995 397.36277,413.5063 397.8358,413.47868 C 398.10887,413.48315 398.38364,413.51922 398.65704,413.5046 C 398.76643,413.49875 398.87438,413.47555 398.98371,413.46871 C 399.18863,413.4559 399.3943,413.46195 399.59953,413.45608 C 399.91037,413.39442 400.22823,413.42619 400.54141,413.39461 C 400.65297,413.38335 400.76255,413.35659 400.87402,413.34449 C 401.0777,413.32237 401.28292,413.31803 401.48731,413.30387 C 401.58625,413.29679 401.6856,413.29407 401.78412,413.28262 C 401.88818,413.27053 401.99043,413.24529 402.09449,413.23331 C 402.25773,413.21453 402.50411,413.21408 402.66736,413.19156 C 403.43088,413.08626 402.54351,413.16456 403.26626,413.10985 C 403.5641,413.1158 403.84923,413.04373 404.13975,412.99877 C 404.43992,412.95231 404.38742,412.99635 404.68663,412.95118 C 404.78651,412.9361 404.88429,412.90947 404.98313,412.88862 C 405.5102,412.87892 406.02416,412.72817 406.55042,412.76406 C 407.08085,412.73061 407.61077,412.67141 408.14261,412.67556 C 408.64398,412.69317 409.14635,412.63867 409.64818,412.61653 C 410.14335,412.61775 410.6386,412.5718 411.13359,412.5829 C 411.64519,412.55236 412.15287,412.54168 412.6642,412.49823 C 412.89178,412.52552 413.11911,412.48912 413.34572,412.47009 L 412.92193,413.12692 C 412.68053,413.14632 412.43672,413.15158 412.20139,413.2156 C 411.67751,413.25764 411.15786,413.31311 410.63428,413.35397 C 410.12589,413.42703 409.61181,413.42157 409.10009,413.45893 C 408.59155,413.481 408.07889,413.47548 407.57538,413.55 C 407.03973,413.61303 406.49966,413.62481 405.96265,413.67503 C 405.44119,413.78301 404.90973,413.75791 404.38126,413.8214 C 404.29995,413.81531 404.21886,413.80236 404.13732,413.80312 C 404.02143,413.80419 403.70647,413.84833 403.59125,413.84992 C 403.50715,413.85108 403.42356,413.83233 403.33945,413.83342 C 403.14907,413.83588 402.96065,413.87881 402.77002,413.87804 C 401.97963,413.93929 402.95241,413.87691 402.21912,413.88541 C 402.02775,413.88763 401.83774,413.92244 401.64638,413.92586 C 401.55549,413.92748 401.46471,413.91504 401.37383,413.91679 C 401.27489,413.91869 401.17637,413.93013 401.07764,413.9368 C 401.04521,413.93894 400.49315,413.97578 400.46386,413.97579 C 400.36762,413.97581 400.27199,413.95771 400.17574,413.95694 C 399.87279,413.95453 399.56916,414.01053 399.26634,413.96634 C 399.19784,413.96811 398.71664,413.98169 398.6493,413.97861 C 398.55438,413.97427 398.46086,413.95239 398.36599,413.94711 C 398.0906,413.93177 397.81226,413.95366 397.53691,413.92801 C 397.08556,413.84059 396.62136,413.84546 396.16674,413.77562 C 395.76046,413.73259 395.35539,413.67981 394.94875,413.6409 C 394.64378,413.61094 394.33953,413.57425 394.03426,413.54747 C 393.79454,413.52247 393.55477,413.49867 393.31474,413.47698 C 393.17273,413.46257 393.0305,413.45218 392.88826,413.44046 L 393.15906,413.04067 z" />
    <path
       style="fill:#000000;fill-opacity:1;fill-rule:nonzero;stroke:none;stroke-width:1pt;stroke-linecap:butt;stroke-linejoin:miter;stroke-opacity:1"
       id="path2525"
       d="M 535.81118,367.08454 C 535.39701,367.29724 535.00139,367.54367 534.59743,367.77535 C 533.99347,368.16994 533.36539,368.52693 532.77086,368.93599 C 531.89867,369.4879 531.07405,370.10866 530.21568,370.68071 C 529.17589,371.42981 528.20657,372.26841 527.18679,373.04369 C 526.0729,373.92247 525.00878,374.86387 523.96803,375.82761 C 522.92057,376.75114 521.84332,377.63553 520.76018,378.51613 C 519.6846,379.23289 518.67896,380.0511 517.68338,380.87449 C 516.56265,381.80789 515.54174,382.85128 514.4533,383.82029 C 513.41336,384.78541 512.37269,385.74515 511.32118,386.69866 C 510.203,387.49206 509.16511,388.39774 508.11038,389.27527 C 506.95565,390.10245 505.92147,391.0829 504.79442,391.94359 C 503.70695,392.80283 502.61691,393.65995 501.53292,394.52842 C 501.35351,394.64104 501.17409,394.75365 500.99468,394.86627 L 501.14683,394.59974 C 501.35775,394.43092 501.56867,394.26211 501.77958,394.09329 C 502.95125,393.23531 504.04056,392.28965 505.1346,391.33846 C 506.1881,390.40939 507.3094,389.57074 508.42523,388.71923 C 509.60635,387.87851 510.78184,387.00818 511.75252,385.923 C 512.79632,384.97569 513.82948,384.01967 514.86996,383.07047 C 515.88428,382.12248 516.97006,381.25304 517.99529,380.31691 C 519.1061,379.32245 520.26475,378.38562 521.38744,377.40587 C 522.42002,376.61271 523.41952,375.77618 524.44658,374.97546 C 525.41248,374.28042 526.36035,373.56351 527.3036,372.83784 C 528.33131,372.05535 529.35111,371.26594 530.3494,370.44517 C 531.20875,369.72781 532.10228,369.05197 533.04925,368.45376 C 533.64352,368.09174 534.20933,367.68385 534.83366,367.37114 C 535.22614,367.14354 535.62691,366.9347 536.02657,366.72096 L 535.81118,367.08454 z" />
    <path
       style="fill:#000000;fill-opacity:1;fill-rule:nonzero;stroke:none;stroke-width:1pt;stroke-linecap:butt;stroke-linejoin:miter;stroke-opacity:1"
       id="path2527"
       d="M 519.33512,376.08867 C 518.87526,376.41092 518.42143,376.70856 517.94771,377.00714 C 517.10977,377.55489 516.30268,378.15478 515.50445,378.76034 C 514.56867,379.43894 513.63664,380.12281 512.69523,380.79361 C 511.71037,381.47491 510.80247,382.2557 509.83882,382.96552 C 508.87409,383.72907 507.89823,384.48361 506.94579,385.26421 C 505.81302,386.27057 504.64562,387.235 503.4989,388.22502 C 502.23578,389.37269 500.9282,390.46816 499.69681,391.65045 C 498.49634,392.69166 497.25083,393.6774 496.02263,394.68568 L 496.09123,394.56364 C 497.3739,393.49549 498.63757,392.40783 499.88977,391.30433 C 501.18433,390.26622 502.33185,389.06056 503.61819,388.01175 C 504.75572,387.03007 505.88967,386.04808 507.0448,385.08755 C 508.02731,384.22675 509.019,383.38118 510.05405,382.58517 C 510.99386,381.81442 511.94999,381.06496 512.94199,380.36189 C 513.88401,379.68992 514.81693,379.00528 515.75309,378.3252 C 516.56936,377.78006 517.34913,377.18413 518.16268,376.63576 C 518.62962,376.3384 519.085,376.07263 519.52967,375.74387 L 519.33512,376.08867 z" />
    <path
       style="fill:#000000;fill-opacity:1;fill-rule:nonzero;stroke:none;stroke-width:1pt;stroke-linecap:butt;stroke-linejoin:miter;stroke-opacity:1"
       id="path2529"
       d="M 413.27424,399.06661 C 413.80726,399.00362 414.32436,398.87369 414.84797,398.74528 C 415.65092,398.65412 416.44452,398.49832 417.25298,398.43129 C 418.23442,398.35426 419.21893,398.37537 420.20206,398.395 C 421.43726,398.45624 422.6744,398.48877 423.91116,398.48343 C 425.18675,398.49347 426.45723,398.59564 427.72994,398.66873 C 428.36475,398.75887 429.02764,398.62365 429.66046,398.72172 C 429.84884,398.75092 430.01995,398.85495 430.20776,398.88763 C 430.21992,398.88975 431.45891,398.9631 431.46675,398.96357 C 431.8929,399.03885 432.3357,398.96227 432.762,399.03463 C 432.95296,399.06705 433.12774,399.16658 433.31764,399.20471 C 433.92185,399.32603 434.5437,399.33238 435.15156,399.45558 C 436.65051,399.60917 438.10598,399.24728 439.57881,399.06025 C 441.07373,398.91162 442.53848,398.64553 444.04031,398.62013 C 445.48712,398.6545 446.93336,398.66643 448.38089,398.65423 C 449.81224,398.6075 451.24473,398.57287 452.67693,398.57414 C 454.11046,398.5897 455.54205,398.66133 456.97465,398.714 C 458.44078,398.78 459.91164,398.80573 461.37738,398.72583 C 462.85411,398.66003 464.33561,398.85947 465.80089,398.66196 C 467.18848,398.77764 468.57568,398.87485 469.96679,398.93462 C 471.33597,398.91981 472.70497,398.95201 474.0728,399.01361 C 475.43849,399.10707 476.80814,399.09559 478.17581,399.13608 C 479.49822,399.17409 480.8203,399.23631 482.13745,399.36128 C 483.46831,399.3616 484.79545,399.47108 486.12494,399.49102 C 487.3901,399.59701 488.65545,399.5027 489.92224,399.49982 C 491.1177,399.42503 492.31112,399.48691 493.50684,399.45332 C 494.11464,399.4183 494.71361,399.42258 495.32009,399.36655 L 495.23708,399.4974 C 494.55171,399.64912 493.87664,399.84129 493.18361,399.95632 C 491.89399,400.17137 490.60792,400.41182 489.29793,400.46192 C 487.96019,400.60368 486.61615,400.67004 485.27642,400.78791 C 483.89503,400.85695 482.51569,400.97458 481.13033,400.88711 C 479.75573,400.94813 478.37901,400.95237 477.00366,400.90879 C 475.64422,400.86672 474.28738,400.76642 472.92739,400.74073 C 471.61008,400.68417 470.29445,400.58518 468.98783,400.40542 C 467.60454,400.29625 466.2203,400.20917 464.83652,400.10725 C 463.55465,399.65351 462.14761,399.80296 460.81307,399.57787 C 459.39905,399.37529 457.96006,399.39947 456.53394,399.38196 C 455.04014,399.3761 453.54804,399.42872 452.05724,399.5208 C 450.62623,399.56687 449.19413,399.58348 447.76255,399.60031 C 446.23937,399.65739 444.71797,399.73607 443.20318,399.91225 C 442.99029,399.93498 441.92603,400.05736 441.70347,400.04671 C 441.49321,400.03664 441.29298,399.94591 441.08325,399.9279 C 440.40509,399.86967 439.71328,400.02661 439.03713,399.89201 C 437.6985,399.81221 436.37671,399.46852 435.02271,399.65146 C 433.66226,399.85396 432.20697,399.92505 430.8342,399.91816 C 429.52705,399.89032 428.24535,400.05083 426.9412,399.85433 C 425.68426,399.77969 424.42782,399.71253 423.17372,399.59879 C 421.95187,399.51851 420.7271,399.46462 419.50266,399.45634 C 418.49219,399.44696 417.48263,399.50744 416.47947,399.63118 C 415.73,399.6981 414.98591,399.71005 414.23817,399.68733 C 413.7956,399.61286 413.35747,399.55266 412.91505,399.63071 L 413.27424,399.06661 z" />
    <path
       style="fill:#000000;fill-opacity:1;fill-rule:nonzero;stroke:none;stroke-width:1pt;stroke-linecap:butt;stroke-linejoin:miter;stroke-opacity:1"
       id="path2531"
       d="M 322.65805,370.89493 C 322.85569,370.89406 323.05316,370.84459 323.24902,370.80851 C 323.56389,370.73511 323.87942,370.70701 324.19555,370.64543 C 324.58046,370.57912 324.96909,370.55479 325.35869,370.51364 C 325.82715,370.4869 326.29545,370.4304 326.7654,370.43784 C 327.31522,370.39525 327.86525,370.40065 328.41575,370.37819 C 329.00371,370.39032 329.59189,370.38297 330.17998,370.39878 C 330.78971,370.41518 331.39854,370.45816 332.00673,370.50333 C 332.61254,370.53856 333.21476,370.61504 333.81964,370.66005 C 334.407,370.72305 334.99299,370.77266 335.57903,370.84975 C 335.86255,370.84395 336.1375,370.93287 336.41816,370.95157 C 336.51792,370.95821 336.61856,370.94082 336.71808,370.9503 C 336.89115,370.96678 337.0593,371.01769 337.23111,371.04422 C 337.70034,371.12858 338.17026,371.20991 338.63773,371.304 C 339.06017,371.33592 339.45486,371.50388 339.87528,371.54627 C 340.23069,371.65305 340.59594,371.72535 340.95166,371.82867 C 341.27857,371.91605 341.59034,372.04386 341.9075,372.16178 C 342.05396,372.22112 342.19453,372.29352 342.33598,372.3636 L 342.11911,372.66275 C 341.97895,372.59304 341.83956,372.52128 341.6944,372.46228 C 341.36937,372.34092 341.03571,372.27884 340.70306,372.18466 C 340.35201,372.08165 340.00932,371.94831 339.64958,371.8724 C 339.27402,371.71389 338.86281,371.67522 338.48236,371.53048 C 338.01463,371.43399 337.54451,371.35151 337.07278,371.27726 C 336.8968,371.24923 336.71712,371.24503 336.54246,371.20963 C 336.45812,371.19253 336.38045,371.15014 336.29654,371.13105 C 336.02746,371.06984 335.74419,371.0764 335.47747,371 C 334.90063,370.92308 334.32817,370.83291 333.75093,370.76209 C 333.15828,370.66906 332.55915,370.62057 331.96153,370.57102 C 331.3544,370.52522 330.74651,370.48356 330.13802,370.46226 C 329.54303,370.44486 328.94336,370.41274 328.35061,370.47824 C 327.78999,370.5014 327.2327,370.55559 326.67204,370.58196 C 326.18738,370.64786 325.69737,370.66343 325.21389,370.73932 C 324.80722,370.784 324.40992,370.84824 324.01116,370.93845 C 323.67587,371.00577 323.35784,371.1228 323.0184,371.17432 C 322.80947,371.2149 322.59804,371.24994 322.39604,371.31592 L 322.65805,370.89493 z" />
    <path
       style="fill:#000000;fill-opacity:1;fill-rule:nonzero;stroke:none;stroke-width:1pt;stroke-linecap:butt;stroke-linejoin:miter;stroke-opacity:1"
       id="path2535"
       d="M 350.04504,377.1439 C 349.89945,377.15329 349.75499,377.17467 349.61015,377.19179 C 349.57391,377.19733 349.53809,377.20872 349.50143,377.20841 C 349.46767,377.20813 349.43559,377.18973 349.40183,377.19005 C 349.21972,377.19179 349.01994,377.25457 348.84022,377.28394 C 348.82192,377.28672 348.53394,377.3314 348.51989,377.33004 C 348.47583,377.32578 348.44107,377.28346 348.39696,377.27982 C 348.28007,377.27016 347.99608,377.34281 347.87087,377.36371 C 347.50994,377.36225 347.15816,377.45032 346.80497,377.51468 C 346.4075,377.5849 346.00963,377.65304 345.6138,377.73203 C 345.09421,377.84092 344.57286,377.94735 344.04831,378.02947 C 343.43244,378.13049 342.82012,378.25778 342.20137,378.34089 C 341.56375,378.42584 340.92748,378.52451 340.29354,378.63417 C 339.66023,378.72178 339.03226,378.85889 338.39378,378.9015 C 337.80671,378.99471 337.2156,379.0503 336.62438,379.11383 C 336.00669,379.14183 335.38961,379.14909 334.77093,379.14566 C 334.12152,379.12965 333.47433,379.0848 332.8259,379.04897 C 332.32938,378.97789 331.82715,378.98404 331.32999,378.91887 L 331.36113,378.87207 C 331.87786,378.86811 332.39064,378.93364 332.90739,378.92642 C 333.56446,378.96431 334.22281,378.97723 334.8809,378.97843 C 335.51415,378.98114 336.15708,378.99197 336.78066,378.87028 C 337.38697,378.80522 337.98285,378.70522 338.58357,378.6027 C 339.22278,378.45401 339.87841,378.38932 340.52398,378.2719 C 341.14992,378.19593 341.77261,378.09757 342.3997,378.03004 C 342.99747,377.95057 343.59945,377.90178 344.19439,377.79936 C 344.71136,377.71769 345.22898,377.64294 345.74065,377.5301 C 346.13752,377.44585 346.53711,377.37616 346.93669,377.30605 C 347.31643,377.23683 347.69993,377.18054 348.0663,377.0552 C 348.22403,377.02891 348.4448,377.01886 348.59351,376.97073 C 348.67023,376.9459 348.73656,376.89453 348.81322,376.86953 C 348.91598,376.83603 349.03119,376.85582 349.13376,376.82051 C 349.31737,376.78913 349.51924,376.77414 349.69812,376.72267 C 349.74945,376.7079 349.79589,376.67886 349.8471,376.66369 C 349.88359,376.65288 349.92221,376.65134 349.95976,376.64516 C 350.10689,376.62655 350.25385,376.60654 350.40088,376.58723 L 350.04504,377.1439 z" />
    <path
       style="fill:#808080;fill-opacity:1;fill-rule:evenodd;stroke:#000000;stroke-width:1pt;stroke-linecap:round;stroke-linejoin:miter;stroke-opacity:1"
       d="M 286.7696,396.1491 C 285.82983,401.95868 281.29584,406.68972 279.70253,412.30829 C 278.10923,417.92686 283.05854,431.46812 284.22471,436.82941 C 287.25393,449.48434 289.35704,455.46672 296.73127,466.24421 C 302.598,474.27631 307.57656,470.93519 306.19037,461.86478 C 304.79989,452.76633 304.09155,444.37019 304.54135,436.52129 C 304.99114,428.67239 311.05812,429.07604 312.32143,423.61218 C 313.58474,418.14833 304.6478,422.51025 302.99526,416.31963"
       id="path2548"
       sodipodi:nodetypes="czcczzzz" />
    <path
       style="fill:#808080;fill-opacity:1;fill-rule:evenodd;stroke:#000000;stroke-width:1.61199999;stroke-linecap:round;stroke-linejoin:miter;stroke-miterlimit:4;stroke-dasharray:none;stroke-opacity:1"
       d="M 280.31078,422.01313 C 280.31078,422.01313 259.56255,420.72731 249.93043,419.21944 C 240.29831,417.71156 226.42751,415.92465 217.58029,411.61803 C 215.32106,410.51829 212.28841,408.92056 210.96902,406.47588 C 210.96902,406.47588 202.4906,404.74109 200.8749,404.01664 C 199.15311,403.24463 184.61689,398.38888 186.64437,396.59201 C 199.48006,387.14769 260.7138,381.21244 263.36546,380.50534 C 266.01711,379.79823 275.8935,379.39495 275.8935,379.39495"
       id="path2565"
       sodipodi:nodetypes="czcczccc" />
    <path
       sodipodi:type="arc"
       style="opacity:1;fill:#000000;fill-opacity:0.8;fill-rule:evenodd;stroke:none;stroke-width:1.61199999;stroke-linecap:round;stroke-linejoin:bevel;stroke-miterlimit:4;stroke-dasharray:none;stroke-dashoffset:0;stroke-opacity:0.55111108"
       id="path3343"
       sodipodi:cx="213.54625"
       sodipodi:cy="396.69742"
       sodipodi:rx="2.4748738"
       sodipodi:ry="2.4748738"
       d="M 216.02112,396.69742 A 2.4748738,2.4748738 0 1 1 211.07138,396.69742 A 2.4748738,2.4748738 0 1 1 216.02112,396.69742 z"
       transform="translate(-8.8388347e-2,-0.265165)" />
    <path
       style="fill:#808080;fill-opacity:1;fill-rule:evenodd;stroke:#000000;stroke-width:0.61199999;stroke-linecap:round;stroke-linejoin:miter;stroke-miterlimit:4;stroke-dasharray:none;stroke-opacity:1"
       d="M 201.34865,398.73034 C 201.84269,399.86608 202.53145,399.57483 202.20049,400.79018 C 202.1345,400.99795 201.72192,402.0165 201.59428,402.19449 C 201.03961,402.67697 199.84963,402.92049 199.29495,403.40297"
       id="path3347"
       sodipodi:nodetypes="cccc" />
    <path
       style="fill:#808080;fill-opacity:0.75;fill-rule:evenodd;stroke:#000000;stroke-width:1pt;stroke-linecap:round;stroke-linejoin:miter;stroke-opacity:1"
       d="M 210.92091,406.466 C 214.11666,406.06861 217.63945,405.91008 220.77041,406.23384 C 223.90137,406.55759 226.58405,407.10849 229.54454,408.27629"
       id="path3350"
       sodipodi:nodetypes="czc" />
  </g>
</svg>
